<mxfile host="Electron" agent="Mozilla/5.0 (Windows NT 10.0; Win64; x64) AppleWebKit/537.36 (KHTML, like Gecko) draw.io/26.1.1 Chrome/132.0.6834.210 Electron/34.3.3 Safari/537.36" version="26.1.1">
  <diagram name="Сторінка-1" id="z65JemPmV592Bb_6lbnL">
    <mxGraphModel dx="3447" dy="1055" grid="1" gridSize="10" guides="1" tooltips="1" connect="1" arrows="1" fold="1" page="1" pageScale="1" pageWidth="827" pageHeight="1169" math="0" shadow="0">
      <root>
        <mxCell id="0" />
        <mxCell id="1" parent="0" />
        <mxCell id="pZx_xOZxBOp0TPrqWiV3-3" value="" style="shape=image;verticalLabelPosition=bottom;labelBackgroundColor=default;verticalAlign=top;aspect=fixed;imageAspect=0;image=data:image/png,iVBORw0KGgoAAAANSUhEUgAAAIsAAAEWCAIAAADZ9POBAAAakElEQVR4Ae2de1AUx77Hp/JHyspfqco/+SeR/JFHVarI48RcS1OHJFWpsqwk3JxDzjXnVFlEA4mGk3PlJvGasoxBkpVroonEKGLQIKKoqBgIKJETjSDgA0TAqMtjl9fCvnfY2QePvdUz0z09s8C+ZpgGeqtLenu6e3q+n/79ZqZ/MysToh+yFWDIHh4dXYgSIn0SUEKUEOkKkD4+akOUEOkKkD4+akOUEOkKkD6+WbIhp2/cwo6RLgaR49OW0NjEZF2Xd8clW36Do6DJsa3OeqrDwwYmiJSC0EFpSMjpG9/f7LzY5fFwgSD83Bzw7m10GG0BQvUgb1haERqbmCy65uq1cxCN9NfDBQqaHFbvOHlqkDgirQhd7Pb+28hKWOS5fqdvf7OTRD3IG5NWhPY3O/udPjkX2be9jdSMopoOmhAam5g0/GaTAQn7Ut7ubrf4oxrjwq5ECZHOXxNCoVCIejm1yGtFiF4pkE6IXm2TTigUCtE7VlUgaeXlhMHRVZ/EIWlLCI3vWj93qsODvtJM9ArMEqHWQd/Z22z0w6I1kQKUEJKC0AwlRCgYNCxKCElBaCZmQnV1dXl5ednZ2StWrHg16s/Kv/xX6t/XRF19flbMzMzcuHHjyZMn7XZ79NMhBkImkykrKysnJ6eqqqrtxu+2gVvOoTY+3XIO3XIOtTstQupwWfg03OkC6TZII7fdI3/AdMdtveO23nVb73qs90Cy3fPYjHzq8ti6PPYu1t7Npx7W3sM6elhHL+voHXWYQHKaRp1mPvWNOvtGXX1eVz+fBryuAa97EKYhr3uI8wxxHgtMwxwrpBGOHfGxVt+o1Tdqg8nu89r9XoeYOKcfJJeQAj43nzwBH5/8bMDPBv2jYgp4g2LiggFuLMiNBX188o8F/WNj/rGxwPhYwGTqvXq1OT8/Pz09vaamJkpI0RIqLS3NyMhov3ll6O45c9tRc9sxc1tZ363jILWf6Gs/2d9e3t9xCqTO0wOdZ0C6XTF4++zgHz+DdKdy6E7V0J1fhu7+MnS32nKvxnLvnOXe+WFjLUhdvw53XRjpqhvp/jdIPb9Zey5aey5Ze3+39V62mS7bTPU2U4PdfMVubrT3Ndr7mhx9zY7+q47+a46Ba86B687BG87BFtdgq2voJkiWNpfllstyyz3c7h7ucI90uEc63SO3PdY/QLLd8djusrZ7rN3I2rtYR9eoo3vU0TPq7PU6TV6Xyesye919nLufcw9wngHOM+hjh3ysxccO+0dHQPJa/V5bwGsPcA6QfM6gzwWS3x30e8YCnrEAOxYYHQ96x4Pc+Bg3PuabGPNPjAcmxoMTE2Ne76jBYNi4cWM0xhQVoT179uTn54/03TDdLDXdLKWEEiMUnJwYm5wcv3r1amZmJstGuAmJTKi5ufnTTz+19tabWo9QQmrYkEhocnLi119/feedd2Z2dxEIsSybnp4+0Ntmai2hhFTychKhiYmJnJycxx57zGAwTMcpAqFdu3ZVnj3V13GSEor1PBTweTmOGwt4w85DEqHQ5KTb7VqxYsV99923dOnSKSFFIJSWljbQ09rbepgSiolQwD86PDzc2dnp9XrHwMUCfqUgIzQ5Ofnpp58+9NBDDMO8/PLL4ZBmImQymdLT023mJkoopms5v491OBzCVXVVVZXfD668sWs5GaFQaPLw4cNPPvkkw39iI9Ta2rphw4ahu+emIbTlfYZhln/QSK+2sattH8dyHLdz58709PTNmze/+eabZ86c8fnAHRK82lYSOl9zdsmSJQKhRYsWKSDNZEM1NTUGg6GvvZwSitKGAn5gPTt37kxLS6uurrZYLHv37l21alV1dTXLsuNjwv2QktBvv1YgQgyjJKL8jgOkhGK6Y/VznuHhYcG5VVdXFxcXr1+/vqGhoaio6L333quuruY4DkCaiEBIccmgEqHz61KAx3sO/As+b50Q1hQuZL0sljDrivk1hZK/wgKGeW8HWFC4mP0KwzB/XgL+BZ8l6zNeFLOZu8U1hfr/hVuZV3acJnNNgeO4zs7Ozz777PLly0VFRWvWrNmwYcOqVasqKysPHjyYk5PDcZzf74tI6OGHH8btRF1C6xs7TjVuew5clmwrHBDwvPTPZrTqU/cvAGxtHlj1KUkDGN77GhL6n+tdddcNvDvO2GXtOb7rzwzDvPht/WVb/cZXGOaVvFN285UKcOr7j28bSVz1CXBOr9fLsmxBQcHrr79+9uxZlmUNBsPbb7996dIllmU5zsuv+kSwIYWjU5XQuzlgXe7QfwLp1+Q25T7PMMy6Ymld7uqXfwIlJcK63I51wHSyrws2lLFzBBJ6ZXuZtefi6QyRUEseNCnRspis40QS8nkcDsehQ4feeeed8vJyH8f5+FuinTt3ZmRkXLlyhfdywYg2NFcJfVhG+sqp4OU+/vjjyspKn48LBrzjQW/Azw0PD3/33Xdbt26N0svNHqGBn94Ck35GL/fKVyWil5vehmxlfwf9pGxq5de2K3Z81krk2naAc7tcLrPZzLJgYRutbQeDnNVqNZvNxNkQiD4IkHjvFOFKYQZCpssiJL4fJoVQQkGfy+/z8Cs9rCL6EAj4fD5uuvshxdW2ijZE40PxxYdm70qBEqKE5meMldoQ6VFwSogSos8pqPKcwuTkRGhyMhSapNdypD3rQ70c9XKYl/thx3LhNpJh3s3pr12f8m4OfV4u0vNys2dDIMb6fhH2RCMlFNUTjbNFqGHrM0z6VtkzpyKh3A9Eu3rr5O2zgxf+KYaI1hqGhOgDCDrkLeBnTmeRUMoXP0xFSHwquCn3+XU/nW3OfR4EIPingq9++ad1JfSpYP0J7f8anpxezj0w+MeP37zEMMxfysFz24f4/F9PLejntmeLkLnm/ZSpzkON25774BB4sr4p93mekBDBM6x76aOr4pP1eete+u9rC/fJ+lkj1FbWd+4D+GACdi0nxFgZ5uWXAKFmPtIK4uJfHhRirHz+J3oeonesxL6dMps2RN8fiuf9IUqIrilgawr0Hbw43sGjNkRtiNoQjT7M7zeNqZejXo56OerlqJeT3n5I5Ml6+rwcfV6OPi8XmvH/koz0Dh61IWpD1IaoDenxy0v0fojeD9H7IXo/RO+H6P2Qnr8ASM9DC+08NNDd3G9sGADpykCXkBoHuhoHupoGu4XUPNjdPNh9dbBHSNeGevjUe30IpBsgmW5YTC0wtVrMrRbzTYv55rC5DaS+tuG+W3xqH+5rH+5vH+nv4FPnSH/nyEDnyMDtkYHb1oE/QBr8wzp4h093rYN3rUN3bUP3+GS0DRltli6Yum2Wbvtwt324B6Ze+4iQTPYRk2PE7LCaHdY+mPodtn6nbUBM9kEnSENCcjksfBp2OfjkHHE5R9xOq5hcNreY7G6X3eO2e9wOPjk9bqfH4/R4XCxIbpBYN8t6+MSOsuzoKFv36y/4r8bE/B7rsPmGpbeJJu0UuHjxYkKEwC8vtRTTpJ0CV65coYSInmGUENF4eluKKSFKiJ6lElOA2hC1oWhn0K68ZfCVSiY5r2p2hNuUyTCZhbOzrzj3Qo4N7cpbBsFUrU1hVh6LFm3MR35sNelU8Gv3WSJkvHqwtjwP33FYHiPUgudjBhDWs7IHSkipSNe1Q//424rFixfPqB1OBeU3ZTIr87YkM4LfA7YlfqBrAhWOFa4US1dvEnch1RRsUeonBfnSZWvrW/jmgrEqm0heF+5LeVwzHo5qlTW3IYQnBkKFKxkgX3EvUJBJ2bILaAEUhG4QlAt5UIERwcCTStXaFLF5cW/hSn4r1k9LMWZDkFB4E7GhakLHjVNbQjieKAhBA5FOQlDBFqS1KFn9lmSeHFahpVgsRCYl9KewlSkJhTfhTUqcHJqdEaPBpiEhBZ4oCCETQTMXAyCf1BEIIXcniov1Mx0hZRMwhnrgYHW+rNCQUG153mLs8+ILyTNOGXTuQXgELwcv6qb3cnCmQ9cnqyn0FonQFE3gMOQzY8ZDgE1UtTkNCcV4MJEICY4OOkJ49gbS85cSYAMs5F0irBnuDMHJiWH4Ux1GDnN0oIn0FU4RVXWPXhxyCMU3ATGJdVIweq3jq0kJxTczZq8VJTR7Wi9MGyJd3/io4K3mug1RQtKzc8qc9O7DPD1F4xNZxzy1IdKtkBKa74T8Pjbg99KknQKJ2lCQfjRWgERC7e3tH3/8cXJy8uuvv97X16exAqR3TxyhW7duPfPMM0lJScnJyY2NjaTrp/34iCO0YcMGAU99fT06fJPJhPILLUMWoUAg8NRTTyUlJa1atcputwswLl26lJqaGhUY477X4JJ2dm1ULcivRCihpKSk1NRUu91eV1f39NNPL1++PKKUPB2JS+2+fcap2tRmM1KlqSqQVkYWIZ/Pl5qamgQ/aWlpTzzxRFJS0ueffx5JuGiVj7ZepP3N2naCCPl8vgMHDmzbtk24UoCYkpYvX97V1RVBkamFV3q92mzoBF/jLUzaDu0K1cjet+81oVIwKFVD9gf2tw/6VNiYr4i+RBhxtJtJIeT3+w8cOLB79+6enp6tW7empaU9++yzL7zwwubNm43GKd2V7AiNkpyycvhF2i6hlMqCQaEUkIBUACo+jxeCekIFtBm2BXvCe4R7TvgvEYQQHqPRuGPHjpKSkkAgENuhScLL2yGbYMTpL1XENgHLem2fUdqGyS0rRBDwUpjXBFBQf0Icx+3fv3/37t1GozEvL+/w4cMx4xH0RB4IMUIzHpvoUE6sCNYH1iL5KKi31ADUm7LUuO+17FqwSWoN+0z8r86EOI4rKChAeMrKyuLBw8uA+R1eyex9tZLiYKMgnyS4zH3xXeCIUHeyaoi51A1oCeDs0waQ3jZUWFi4Z88eo9FoMBiOHz+e4IwDYoof6WzBF2Rno4tswbkptovnHCC12AF+pSA0EToSb7PkhPh2QpcJHkJ4cz1tyOfzffTRR62trV999dXJkyfDB6driYLBzGOBzm/mWnFt1ZNQMBisqKj45JNPKioq4hq8ho1kvi3ifpDzi1gz9go6E4p9wJq2wNwZds0w4y4Fv6jFJYK4W0poRv0J2EgJEQBhxiFQQjPKQ8BGEgnRGCs+MYgjRGOsOJ5gUO87VsVogsEgjbEqNCHLhhKIsUqrAbJ7f8XhzsGvhBKKPcYqu6vncU27ChPTaoHuTMkilECMVUZousVuQW5KKM5pl1CMFaxdyo1GLMC8H3/jLy0bCNWl7RquC8SpCN+MFBtCQbz4YqxS4AaJoUQmfZdsSCqbIlyEetI3QwQhhCf+GOu0NsRLL0YUwkJEkkHxNeRGqC8YtHf9CakTYw0jJC43Y6vOyHRQRnw8AYlBZEZnQurFWHGHBZSXHgMRzy+gTMhKhMBJiEjDweaKzoTUi7FKZ3zgsKSzPnJk0YZZMXGIyOpJiOwYKxF49F/1ITbGSgofAtflyJGGkJHo6eUIkYDwYVBChAMiL/pAumCzPj5qQ7MueYw7JJEQjYLjEIkjRKPgOB7974cUo6FR8HBByLIh8qLg0mpeuHbykuhryttF+kYoIU2j4JE0iWG7tAgbQ6PYqpJFaHai4LEpNGPthUVImyg4H30VI3jCire0Ci6ugCsLgOz8W8T4i5M8C2mhHLxGhL7xEQwMltQhWmSXNZdW3mfEL2wkxYZQmFXlKDgeNhI0xJTkJcBifKJeQHkYNUK1eRyitCAvZNFmKYoO8MDW8jeTpTZo+1whhPCoHwWX5jmMc/MTXJII0xjKhRehPMqAWog7Vgqz8K/QG6yJl+J5uM/p/+pvQ5pHwafyKYIfEl4PRp4IqoQriPIoA2pB3fEwOqwA/wq9wZp4KZ6H+5z+r86EtI6CAy0lnyOXQRBqigq4giivcH2iEaLNUXg5NFOwRvIRTflNZ0LaR8HxEzo8o8suHPAKYScXyUiArOE/QiJeLQBemO6Ya4VYsK14zSmZyAv1JDSnouC4xHIJNf6mJyGS3zQOk32hEgoTgtgCSohYNHoPTGcvp/fhz4H9U0KkQyKREI2x4rOGOEI0xorjoTFWhRokfiXLhhKLsUrLoVBpuCoGv8/Fv4QSSjDGCklQQgYD1EKdvyrGWPkBUUKqElItxooWLvHfWVRnCunQCyleDgXxEo2x4tEEPGKgg7bq7JIIQgiPCjFW2foZ9XJqeDl1Y6zAhGBMBouFqjOddelFZxtSP8aKI6JezpCwDakaYxXvhwAj4UOvFBIkNKdirLp4OLBTnb0cfdM4InmdCUUcH61ACZE+ByghSoh0BUgfH7UhSih2BWgUHNeMOBuiUXAcj/73Q4rR0DeNwwUhy4YSiILjD8iHh8PDD3zOlBBKKOYoOL5gGpzu/zOeM1TwgZJFKP4ouCwshB/gnM8TRCixKHhYpAGP3kl5nqQYJhdfwQPr4AT7RVIIoTBrvFFw8Wfqpd84lajgkTweDh/i44MUAhmZiyTN6IgghPAkEAVHwgIGAMG0hGAIFnOMWBb1Q0pGf0IqRcExQQW9KaGampoEI3jBYFC1KHhtNjQN/uVi8EX6oQTgxcQzDWYtU2cx0mRkdbYhVaPgYuwbwuBR8WWvZWfD/7ZjaixYKRlYsFHoSYhGwTEQ02b1JDSn3jSeVkGtN+hMSOvDmwf9U0KkQ6SEKCHSFSB9fCTaEI2x4rOGOEI0xorjoTFWhRokfiXLhuKNsfLr1HBJQVhG2GckUe44xkQooZhjrMKhk7x6EwccvglZhOKPsVJCobCPKmvb+MRKLMbK9yTZkCwoB7/wm8UAK/y1XynyJwX/8FHpnifFhlAQL4EYKx9wQEEIGS0h9iAFWIUng0BdPIwkNdGdizQAIgghPInGWGUSwy8SA1jCH75YjExKuNAg74EF/QmpGWOVIQDmITwsAu1KtlkiBDdL85aknM6EVIuxCprKEPAeDLzKiggAe4FGAiOwWPyVJC7SWHQmpF6MlT8kBSE+ygqRCP9Rw/S/yEzqbZSehLSPsUqnoCkBShOV4JyehDSPsUJPBvVXmhgsJ/qvzoQ000ZYB0JnIGE/lJBmei/kjuerDc0fppQQ6SzPnz+/ZMkSfOEeX4Bj8C+KvLAu19de3ttSTJN2CiRqQ5SQdmyEnikh0h0AJUQJ0bNUYgpQG6I2lNgM0vo8TH7/5NjQrrxlDLN6k0KyY6sZZtna+siYN2UyK49FrqawmF15y5LzqhSFZH0ljBAj16tqbcqy5JTpCR1bzWQWCoJSQor71VAopjtW49WDteV5CvuQfwXTOXN1csqWXai8fkty5pa1lJDmawpd1w79428rFi9ejKSfKiM4nE2ZksXwZlG4UvJyVWtTxNUP4NCAAxQ+oAmszJdAwyrulZogayvuLVwpNly9Fno53scq2sbsMzVxj5p7OYQnOkJAd1HfwpXAnhAh4PHgCalwpXDGkioDQvA0hjeR3OamTCEPmEFfClDxedjhVFNHE92j35G2hHA8URICsx5cL8BzOJIbTXzJbjCcgg2Jsx6ek+S612/hXaisEO6FNzXcwUavoNY1NSSkwBMtIYFNocCJ90iC6ciUFee13IbQtdxMhOq3JGNXjJAQjxZsYqAFk+HieluKNSRUW563GPu8+ELyjNNNEkumFLIh3DtB+SIQkjXBvRxkibwc7BA41bAr/hmHrbkP1JBQjAcmEeptwa4XEKEW7AzPMKJHElwfulIQhYY2JG+CLh+EGQCcJbpSkFwohIeY6Z0hh5DmkzHGGUPKeCghUkhMN4EoIUpIbz8+3dycK+XUhqgNURtKTAFqQ9SGEptBc+Vsod04E7Uh0p8HnPvjo4RIZ0gcoaam5qamZtJlm8XxEUSoo6Pj++1HDFmlhqzS77cf6ejomEUdyN0VEYTMZnPRnmO575cdPnCira3t1q32o8XlhvVl+74u7e7ujk48xet20TWaC7X0J3Ti2JncjONFe8tuXL/R2XkbpRvXbxzcW5abcfzE0TNRKEkJTfMkSRTaRajyw/bS3DUnCr4+evG3SwhPZ+fti79dKvj6aO6aE3u2H4nQBdhMCWlGKP+L0jt37h7+8UTuB8e/zz1yrrr2XHXt91+W5n5w/PCPJ+7cuZv/RWkshPhXIeHvWEivSQqvTYKgECyTSlAR3naq/7dDagI7iWJkCVbR38vlf1Fq4T99fX0Vpyr/b8PR7VnHykpOmUxmoTx2QpCC9KaxlBP1Alqj9/jRVulnZXgWQgWQBUBwK53FN2IJIiTwqDhVWXGqUsjHSwhNcCgk/CtNZ3kJFB8rDc9CuxSeZJH4Sp1qklsQhKAVYApiALCTGFYansVKsI40zy4IQsrfJhF/sWxKLwftD+MhZmWOUXMwaAdEEOoydiG3pvByXcau2M9DUGXw36fAvOSjwkvwStjW8KzUyaw5uaD+hM6UV+4xHC07crqjo8NisSBCnR2dZUdO/7C99Ex5JZpQCzCjP6FgMGi1Wqt+rtmzvaSk6MSRgyCVFJ3Ys72k6ucaq9W6AKngh0wEIWFAXq/390uXC789WrCz9EJtHcuy+EAXbJ4gQguWwcwHTgnNrI/+W+MndPny5c2bNwcCAf0PYl6P4MKFC3G+4dXR0fHhhx/Oa3GIOLjTp08/++yz4kIG/wdfIp3pd33sdntaWhoRBzGvB1FQULB48eJ4CIVCoaysrJs3b85rffQ/uPT09AceeCBOQqr/bL3+ehA2gmvXrr366qs4ngcffDBaLyfU27hxY0NDA2HHNU+GMzo6mpqaumjRIpzQU089FRshu92enp7ucDjmiSokHcY333yTlJSE42EY5ZWB8jtOD+Xr6uoyMjLoCUlFuA6Hw2AwLF++XIEnTkKhUMhkMmVlZRUUFKg4ygXbVUNDwxtvvPHoo4+G41m1ahUyDCETlQ2hNqWlpStWrMjJySmin7gUyM/Pf/PNN1NSUu6///5wPA8//DCSGmViIxQKhQKBQF1d3eOPP/4Y/cSuwCOPPKK4LkCcFi1ahKjgmZgJocZLly5FvdNMggosXboUCavIxE9I6OjBBx9McHALvLni7keBJxQKJUoovEdaoq4ClJC6eqrfGyWkvqbq9kgJqaun+r1RQuprqm6PlJC6eqrf2/8DhcGQu8ks96UAAAAASUVORK5CYII=;" vertex="1" parent="1">
          <mxGeometry x="-1088" y="70" width="139" height="278" as="geometry" />
        </mxCell>
        <mxCell id="pZx_xOZxBOp0TPrqWiV3-4" value="" style="shape=image;verticalLabelPosition=bottom;labelBackgroundColor=default;verticalAlign=top;aspect=fixed;imageAspect=0;image=data:image/png,iVBORw0KGgoAAAANSUhEUgAAAKMAAAEWCAIAAACFfrClAAAcWklEQVR4Ae2dbWwUx93AV/1QoX6K1C/50uJ8aBupkvPSJEI4ikkkJIRSaPs4LTyVkAOxA8RPngeLgKgQpQZyuEmgjUOxMTXUgHk1YGrHDgYXCBhjwDZgm7fzy/n1zud7Xd/em18ezc7O7Oz55c53u97x3pxGMDs7M7vz/83/P7M7/x1zE+yXHBLgkqOZrJUTjHSydAJGmpFOFgkkSzuZTjPSySKBZGkn02lGOlkkkCztnCOddvlHrXw4WYRKZTu1JR0eG6/r8H1xY7ig3ll0x7mrzn6+zcsHx6gUhcFvSkPSLv/ooUbX9Q6vVwiG0O9Bv+9gg9M8HDS4XOlrnlakw2PjJffc3Q4BIZb/9wrBojtOu2+UPmkY+Y60In290/cfMy/jVcb6XP5DjS4jy5W+tmlF+lCjq8/lV/JVHB1sYGo9p91BE9LhsXHTtWEF2EkH5a2eVmtgTtua3BdjpJOFvyakJyYmmPWmrQdpRZrNyJKFNHvKShbSExMT7M0JVbC1st6wkextKD2wtSWN23mvTzjf5sWHLDL3Epgj0i0D/kuP+blvHrsilgAjjUVh8AgjbXDAuHmMNBaFwSOzJl1XV5efn5+bm7ts2bL3Yv4t/90fVv732pizs4wzSSA7O3vr1q3nzp1zOByxd89ZkLZYLDk5OXl5eVVVVQ+bvh/uf+QceOAcfOiSwiPXoBisrS4ptLmtYrC1u+Xw2G177B567Bl6gsJTz9BTj/2px/4MBq/9OQjDz73DZhQ6vMMdXkcH7+hEoYt3dPHOLt7ZDcOI0wKCyzLi6hFD74gLBJ+7D4V+n1sMngGfHAZ9nkHBOyh4rXLgbYIUhgQeBP+IHYVh/4gYfA6/GAI+pxQEVwAENwxBwRP0w+AN+mHggwEQQoERFHyhIA5CKCiEg0I4JIRDfhQC4VAgHA6Ew8FRKYQslu67d+8WFBRkZmbW1NTECDtW0mVlZVlZWa0Pbg8++87yoKzn4cmeh6dAeHS699EZEFrP9rae620919dW3td2HoT2C/3tF0F4XNH/uGLg8aWBJ5cGnvx74EnlwNPKwadVg0+/HXz27eCzauuzGuvzGuvz76zPL1vNl23mWpv5iq3jiq3j6lBH3VBn3VDnf4Y6rw11XbN3Xbd33bB337B3fz/cfXPYcnPYcmvYUj/cU+/oue3oaXD0Njh67zh7G519d8Vwz9V/XwxNroFm10Cze6DFPfhADA/d1odu6yO39ZHH1uqxtYEw1A6C/bHX/gSE4afe4Wfe4We84znvMIPg7BhxdoLg6hpxdY+4un1ui8/dA4KnV/D0CZ5+wdsveAf83kE/P+jnrX7e5h+xBUaGAiP2gM8e8A0HfY6g4AgKzqDgCvpdIb8bhIAnFPCEA95w0BsO8uHgSDg0MhryjYaE0bAwGvaPhQNjo4Gx0eDYaGh8LDw+Fvb5Rkwm09atW2NR7phIHzhwoKCgYKi3ydJywvKgjJGmhPT42Oj4+Njdu3ezs7N5PspDbHTSjY2NW7ZssXffsrQcZ6Sp0mlIenx87MqVK6tXr57ZjEchzfN8ZmZmf/dDETMjTZf1xqTHxsby8vJeeuklk8k0He8opPfv31956Xxv6zlGWq9xOhgQBAFM0yaP05j0xPi4x+NZtmzZD37wg0WLFk0JOwrpjIyM/q6W7uZjjLQupENBwWaztbe3+3y+cMgfMSMjSY+Pj2/ZsuXHP/4xx3FLliyZDHsm0haLJTMzc7jnDiOty9w74B9xOp3waaqqqioQ8I+C6bc89yZJT0xMHDt27Be/+AUn/mZHuqWlZdOmTYPPvpuG9I6PYa3w37T1DewpS72nrIB/RBCEffv2ZWZmbt++fcWKFRcvXvT7hXAogJ+yIkhfrrn05ptvQhoLFiyIgD2TTtfU1JhMpt7W8plIp33cwJ6n1X6eDgaANu/bty8jI6O6utpqtR48eHDVqlXV1dU8z4+GpefpCNLXrlRg0hwXSTbymOwIjLQub06Cft5ms0GjXV1dXVpaunHjxvr6+pKSko8++qi6uloQhFHp5Ql4nh4fH5sYH5+YmIggHTE1U5P0mQ+B5UjPO9jXdh7G1x+92H/lkyUcx739OvgX/F7/6qr4jqzuU5TCLdnzL/CO7NomkPLOr96Vcn5wAbwjO7n/HemYe+ezpq7r9ptbUAbu3fxzxntHJghCe3v7n/70p5s3b5aUlKxdu3bTpk2rVq2qrKw8cuRIXl6eIAjBgF98TTYT6RdffJHU24RJIwrchzt7Ww9+kcZx3IoztRvTOS591yHwKhSS5n577vGlgas5IvVPG0XMS/YcHXz2bfk6juN+te8aJr3pvrn2/udgvHnXVHYhC1xgYxl6Gypifjf/jL37+4psjuPe+tsto70NDQU8Pp+P5/mioqL333//0qVLPM+bTKYPPvjgxo0bPM8LggDfhs5svSMMeMKkI8bpyxvSIfu0jQ3wvTckvXaP+N778Fdvcxz3u6/2vI57CIxsOI5If/QFeO99/AOQnrXvvkmaYnBZ+4e6rjXtfSui4CenDUc6yDudzqNHj65evbq8vNwvCH4/eKTet29fVlbW7du3BUEYGwXvvekgzf3mTDTSG0qVKxzQeitJgxWO7zcjc/2H/SLpT04ZeYUDWu/NmzdXVlaCyXYQrHAEg36bzfb3v/99586dMVpvTXUaWe8jvwGat3Z3pPUu/a2Ybhoo/R2IvP2/d8W1rPN7/u8eHqcnkwZrWafE0fqt/XtXg4LpW5rEtayK/K3NhlvLCgW8bre7p6eH5/lwSMBrWeFQwG639/T0iDoNp98zjdNqkwaCh79X0sEgDWdkheKAzckzMpSJe/t/GuGqZel/4TTu7WlJw3Ea5tx4Uly1PCnChknpBiQdDnqDAd4P3oD6IlYtQ0G/3y9M9zwdMfdWkXRs69OKcZqtT6u5Pj1n4zQjrbMnAiOdLD4nlJFm3kWaeRcx0kynpcmuWu/IYhunmU4znWa+oQn6hjLrzay3+ta74K/i2xJQ8Yc7ey9vSP/wL8zfe878vedMp4HPycclhGc/I62ez0ksnv1zRLp+5ytc5g7FNxwS6bz1kvH4zVl51ZLj1u6RVi05jltnYt9wJP4Nx9yRTt9ZMBVp6Wudhl2vrT968c6u19b/S/pap3H36xtK2dc6qn2toztpuKIF9HrJruL+9uIvwZq06InwRFqfPse+y1Lju6w5It1Tk50+1TjdkPfa+iPgC7yGXa+JpOEXeHs2vJ3TKH2BZ9rw9qd32Rd4CX+BN1ekH56CsKVBGc+9j6yAKelpgPSdXa/BwyW7DzfullxNluwpYeP0vBmn2Ve1un9VO4c6zb6f1vX7aUaavSOTRlS2wmGQPRGYTjOdZjptrH1OmE4znWY6zXSanKTheLRvLZnPCfMNZfuRzcl+ZGycZuM0G6fZOI3HZjLCxmld9kSIfTdJZr2Z9WbWm1lv0mjjOLPezHqzXZ+p2PWZjdNsnGbjNBun8dhMRtg4nVzjdH9nY5+5vl8Kt/s7YGjo7xBD550BKTQOdIqh6+6AFO4Ndomh+/6gHJoGu5sGLU1WSzMKLVZLi7WnxdrzAAZbz0MQeh/aeh+h0GrrbbX1tQ71taHQPtTXPtTfPtT/GAZ7/xMQBp7YB56K4Zl9AIThwecomIcHxWDtGJZD57C102HrdNi65DDU7ZCCxTEEgtPeg0Kv0y6G4T6nGFzD/VJwDLhAGITB7bC6nTDY3E4YhtwuEDwuOwrDHjcODo/b4XU7vB6H1+NEweX1uLxel9fr5qXg4b0enveiwPM8P8LzIyMjdVe+JXeTnPU+J7aeJmv3HRbol8D169cTIi3uEFva3cwC7RK4ffs2I007JFUUiZFOCszdzaWMNCMNnqhi3CE2WYSlihXVqxKm08nSTekhvT9/sfSWjuNS86vmBsC2bI7LLp6ba+l8FapII8BV69K55ac0e3I7tSZZ6JIjxRyRNt89UlueT154Unx//mJEupmMq68KjDQ0nuS7bXVmZB33jv7x98sWLlw4iS5JkaSL49uyueX5O1Ilew50XfohkwsynCpeLqWu2SZdQs4JbYNcTzoeIxavu9UsFofGI7KIPJqga5F3O//imus0xjwL0sXLOYChtBuQ4NJ37Af8AAms9NuypTjIwEmA0aBbtS5dKl7aXbxcPEvU01xK6DQiPbmIVHD+EZ1OnbQlTWKOgTRSWHmQRiSaMTNJ9Ld2pIo9gMjQXColYhWH9UXo7pSkJxcRVVzqZJrNGKajokW6hqQjMMdAGqss1iQCpFLJopDGZlyCRNQzHenIIuAeboGBwyDTNw1J15bnLyR+b72ROmNXxWMzxgytN5qET2+9keYhk67ICWuLRnqKIug2lD1sxiagIlTaAA1Jz1Io0UhDA44MPJolAYTilA2cQImiqUc5Jxt5MHhznDgVIHoAYcBBEfkQdTUq+cUuZHpIx6cQBKp5TiJ2ZvHlZKTj62HzrxQjPf+YJadOJwun+OiSpea7TjPSsUqAkY5VUqR+zMc4I81IM58TYz22JarTAT8fDPhYoF8CiZIOsd88kQCNpFtbWzdv3pyamvr+++/39vbOE0nSfpvUkX706NErr7ySkpKSmpra0NBAu/zmz/1RR3rTpk0Q861bt7AYLRYLjrNIfBKgi3QwGHz55ZdTUlJWrVrlcDhgk27cuLFy5cqYmmcuXIqWsHJrYyqRPJkoJZ2SkrJy5UqHw1FXV/fLX/4yLS0tKhKRssy3trDQPFWZ2lxOzjRVBqOm0UXa7/evXLkyBf0yMjJ+/vOfp6Sk/PnPf44GIFaCseaLdr15d54i0n6///Dhw7t27YIzMoQ7JS0traOjI4pkpwYYac1rc5FxXypqvHwe6TnOkVtYuBRmCoXkbNgegOsVorECFRYz4oModzzXp2khHQgEDh8+/PXXX3d1de3cuTMjI+PVV1994403tm/fbjZPaYYVkjLLWBTp6EA+L3cJOS0UgqmAKKILkItxMhHkgxnwaVQWXImsEV2Zmv+pII0xm83mL7744vjx48FgcHYikgEqy2Ed5SR1lDMSp4CmLy00y+cIbIpEDJNMRXGqQYf0Jy0IwqFDh77++muz2Zyfn3/s2LFZY4ZcsGXFrLEGEoqHsBBJKD/QXtn2Im5yAZBvylRz4dLcWnBKLo3qpOd/nUkLglBUVIQxnz59Oh7MojgJeyoSyS2slcmBkxCDDE5hlsUqSNS4OkU23HfkakBJALmQbtB663RxcfGBAwfMZrPJZDpz5kyCGgCgSD95NBUTcnPxwxU02hHnpTEZIJMqIGdksAisSHpMV5IWy8EqE2yCdsX11Gm/3//pp5+2tLR8/vnn586d066RcdUcwXLmOpBRnzmXrmf1JB0KhSoqKj777LOKigpdhTDFxRU2e4rzyiRs1JXJVB3pTJoqWYiTNMl4o2E96g1Ce0/zVExqAiMdlaVBMjDSBgEZtRmMdFQRGSQDjaSZz4kWnYs60sznRAvMoZDeb04mt4r5nEyWiSopdOl0Aj4n8tstxbssVYRkiEooJT17nxPFWyoR+7RvJ2f19ssQlEEj6CKdgM+JgvR0i1sQGyMNXw/Nbj8yFbt8Qj4nYI1BqcRSAmHVxRdZ8moFzC6fnwfvuRKRNi06jZ0R4vM5kReOsTAi0cvHsk7LaVMsV+OajBGhgjTGHL/PybQ6rXiZHblELSu4aM+URsEYgHEr9Cetjs/JJNLS8hKxyoRVGUck9zEsDENHdCatns8JaYgBQdndTxp/QVqkToNB2tCKTPRdnUmr53Miz6yAIZZnV9hAx+p2QgjHUFE9SdPtc2IozPo/T1Prc2I0zrS9OTGefOlpkZ7Wmx4pJMOdMNLJQBm0kZFmpGPbpSpZ5DT/20mjTjPvIi36FXWkmXeRFphpHKeZd1FSkKbPu0h+Wx4NQOw5o9WkzXm6rDcmral3kYqSlJfFVKxUm6roIj033kUqSpKRjkeY2ngXid4o0G9KWuGSV72kFa/IBIBP3K2G3BBDZCovjIHPqPGRuPJJQJcrxItqiuLySls8coqzDC06jd1OVPYuIpetIQuCiCgzwldBkiEgiFatcW4Rq4QIxGEUn5a9kwBmVFq5A45cBp+Pk1o8xaggjTGr710k6x3yHxIVThY1wQrJj0zCcRwBuXD/IVJRFP0Pa0M5yVQyjq6p/f/6k9bcu2gqWwntK9yGBltYJG2SBI7jCMiF+JHuSSgD+h/WhnKSqWQcXVP7/3UmrbV3EWAi21KlOKHAp8hAksDxCJMuGQV8OgbrjXscUUh5R5oe6Uxae+8icuKEZk6KCRqZYdLgKystwDN5U0FpVga4E/yIIQPhJc6SOTVlq6xcT9LzyruIRKUU4Tw50pM0zTvaTMLHSE8SiUETGGmDgjVes3S23sYTKLUtYqSpRaPyjdFImvmcqAxZrI460sznRAvMzOdEI6nSWC1dOo09EWb/V5TQC2aFkKdMVORIngNKSSfoc4L4MdJIErR59qvocyI2kZGmkrRqPid4gYHcd19ucpLGaLHe2BkhUZ8TchWSXGlMUr5ys6kgjTGr4HOieD/NrDdNpNX1OQEqjdaECd8QucFJG9NZp9X3OSFRM+tN9GudSavqcyJ5/ADW8MdmZJSQnlc+J4TM5mdUZ51mO9rMWbfRmfSctZNdiJFOlj7ASDPSbJ8TY/UBptPG4jl9a2gkzbyLpucV/xnqSDPvovhhzliSOtJsR5sZecV/ki7SCXgXkR/SyV9Hxy8Yw5WklPSsvYvIhY1QbWGh2XCkEm0QXaTj9y5SLEsnKhRDlqeIdGLeRZNWKEkvBDku9gjJ/UjaEgGseyWBvaeFNHY7ide7SPqzd/Lf4JDpkh4JImTRVUFc3ISEFabfkApNi2c/xpyAdxEGBFgClNOSRi4phMEnorgeo0X012mVvIsIMJAbI02IRH+dVs27qDYXqaq4iQ04kDcaA9ZZGokJ7Z06qhSPgY501mlVvYsknyIEVUQupi3NzUV/3nRqvESqgdgqm6InaeZdpGSh7ZGepOfVjjbaYpiD2nUmPQctZJeAEmCkk6UnMNKMNPMuMlYfoFGnmc+JFn2MOtLM50QLzPq/I5vcKuZzMlkmqqTQpdPx+pyI61LoFRl8LcZ8ESL6B6WkZ+1zApuVDG81IwDGfEgX6fh9ThjpaMgpIp2Yz4nYUFmnFc4F6EA8LTmcoL+OI3swyE4M0YQ2L8/TQho7IyTgcyIuVOLFSwV1uGYpO5xAT1KQl1zGlovMS5Yz3zQVpDHmRH1OFKjQgcwSpYgikZKxisMJnXEdyvQnrabPiQIlUFfoFIj0XHFaJo1Oz6wT8/2szqRV8zmBHBQoRcsMtjrBJIH+IqVFHimEP8p8Zznz/etMWj2fE7GZEaRFrxOEFv4hyun/EpLRH8P1JK29z4k8RE/ZEWZWAoOd1ZO05j4nyEIjZpEqj9KT4n+dSWsmY/h+FI/Q8DqM9JvkK2OwLo1+HIpM8X9NTY3JZNIMFatYZQkYVadVFpMBqmOkDQAxpiZcvnz5zTcTsN69reXdzaUs0C+BRHWakaafMbxDRjpZDBIjzUiDB6voT1nMejPrnSy6wkgz0nRJgJ5xen/+Yo5bsy1CRU6t4bjF625Ff5Dbls0tPxU9W4T09+cvTs2vikg05iFlpDml3KvWpS9OTZ+e9Kk1XHYxBMNIR+mgc0TafPdIbXl+hL4qD4F6Za9JTd+xH6ff2pGavWMdI40FkkhkLkh33Dv6x98vW7hw4Yw3Cg3ptmxZg0U1LV4uW++qdenSWgww1MCwwx8ogjKLKUjRS7vlIlj7S7uLl0sF16xD1lscOyLKznosiKJVMzZf87Kak8aYYyMN+EmcipcD/cakgSVHA3bxcjiiy5kBaTTMk0Xk4WBbNowD9miMAMjFOKpQXxiaXl1b0iTmGEkDLQTzMjRXwtiwIsp6THQLqNOSFqIxW8nv1g5xaFAkoquIqk8OHJoKXZfKNSQdgTlW0pBxMeQtWlqoygpCkq1T6jSee89E+taOVGKGj0iLXQSc4pBFMZbp7m4u1ZB0bXn+QuL31hupM/ZlWegKiWOdJq0uwhCFtKIIab1Rn8DWG1UIBotJT3oz3rbm46taV9eQ9CxvUSbd3UzMyzDpZmImxXGSpYUmHc/IJGBIp5VF8DQN9iQwCOAZmTw0oE6A2RslQg/peaMcs+zBtLSLkaaFhNYdiJFmpNmqpVFGaGgtmE4znWY6zXQauvlDz37mc6L1TEqt+pn1ZtY7Nusdk1M5y0SBBBLVaQqawG4hJglQR/rOncY7dxpjuneWaTYSoIh0W1vbN3tPmHLKTDll3+w90dbWNpuGsLxRJEAF6Z6enpIDp3Z/fPrY4bMPHz589Kj1ZGm5aePpwi/LOjs7o7RAOg0/mJZ8SSK+m46tBoPn0p/02VMXd2edKTl4uul+U3v7Yxya7jcdOXh6d9aZsycvxgAhYqOLGEokWRb9Sf9jb9nutWeLvjx5/doNjLm9/fH1azeKvjy5e+3ZA3tPxACFkY4iJP1JF/yl7OnTZ8f+eXb3+jPf7D7xXXXtd9W13+wp273+zLF/nn369FnBX8qiNAKcjiSNdpCEWxbhPQZza/FWc9jEy4YfJombZKBsKFdkJnFfJDhYoCwx3KWOWaggbRV/vb29Fecr/7rp5N6cU6ePn7dYemB6zKSlQRrtOSaxJzY3EelJXEAcRMkeImUlsuE9cYhaIvtVxCkdYc54aYpIQ64V5ysrzlfC+CxJEzuPwTZDPZRVTsFE7gi4h0h/npjMhuJiVfIFkMZLReUTMwpb15OGJg3+tCWx5y84lLHLpOU0iILMRsYlgw2yK5J1BRjzxQ1MejJKAB6pH7LLQFlRmiQ1EiMZF0/DhClKxSxynTJSQbrD3IHNdYT17jB3zH6cBugAVaisMhVAqbBwaeQ8ijDFInOSLorLeZAFkFMie4pOKKNcVn/SF8srD5hOnj5xoa2tzWq1YtLtbe2nT1z4x96yi+WVURoR62mELdb8hsqnP+lQKGS326v+XXNg7/HjJWdPHAHheMnZA3uPV/27xm63qydvRjqBXarUwxDy+Xzf37hZ/LeTRfvKrtbW8TyvYuViVYw0HaTV5srqU0iACuutuCN2oI0E4id98+bN7du3B4NBbW6M1aqyBK5evRrnbpJtbW2ffPKJyrfDqtNMAhcuXHj11VfJ94HQ8xP+O9N+ZA6HIyMjQ7MbYxWrLIGioqKFCxfGQ3piYiInJ+fBgwcq3xGrThsJZGZm/uhHP4qTNNvMXRso6td679699957j8T8wgsvxGq9Yb6tW7fW19erf2usRvUkMDIysnLlygULFpCkX3755dmRdjgcmZmZTqdTvRtjNaksga+++iolJYXEzHGRM7DIY7IX4HhdXV1WVhYbsFXmo0Z1TqfTZDKlpaVFYI6T9MTEhMViycnJKSoqUuP2WB3qSKC+vv7Xv/71T3/608mYV61ahRUVRmLSaVymrKxs2bJleXl5JeynqwQKCgpWrFiRnp7+wx/+cDLmF198ESPDkdmRnpiYCAaDdXV1P/vZz15iP/0k8JOf/CRi/oV5L1iwANMlI7MmjQsvWrQI184ilEhg0aJFGFBEJH7SsKIXXniBkkYm+W1EPD1HYI7y1xkm52Yp81cCier0/G15st05I50sxBlpRjpZJJAs7WQ6nSyk/x9i0HIYpwnMSgAAAABJRU5ErkJggg==;" vertex="1" parent="1">
          <mxGeometry x="-1100" y="410" width="163" height="278" as="geometry" />
        </mxCell>
        <mxCell id="pZx_xOZxBOp0TPrqWiV3-5" value="" style="shape=image;verticalLabelPosition=bottom;labelBackgroundColor=default;verticalAlign=top;aspect=fixed;imageAspect=0;image=data:image/png,iVBORw0KGgoAAAANSUhEUgAAALsAAAC6CAIAAAB5rquYAAAYfklEQVR4Ae2dfUwU19rAJ41p+qdN/2rSRt40aUhqqN5q/yhNbZvYGGPxvXnpvdY3abgqFsX0DbxW08ZaitiFq9W3Wq9QLFZEFBDRChcqSilFRLSIwKLI8rEfsAvr8rXsN7BvzjlzzszsDrs7y8LOLmfyBGbOnM/n/OZ5zsycOcu46UY1IEUDjJTINC7VgJsSQyGQpgFKjDR90diUGMqANA1QYqTpi8amxFAGpGmAEiNNXzQ2JYYyIE0DQRKj1+vb6BbhGlAqldJggbGlEaNWq3NychISErZu3ZpGtwjXQGpq6vvvv5+enl5XVxc4OhKIKS4uTk5Ovnnj+rBOOTrYOqy6Odx7c7j31nBvHZTfhnuh9P023Fc/0vf7SP/vI/0NSIwDDcaBP6A0GgcajQO3n6qJND3VND3V3AGibUZi0t6F0mLS3jPp7o2ycn908P7o4J9jg61jQ0QejA09GBtqGxt6OKZnZVzfPm7ogNI5Ptw5wYpyYrhrYrhrcvjR5AgW4+NJYzeUJ5NPWTE/7TE/VUHpNZtYmRrtg9I/Ndo/NTZAxDKmhqKxjGss41ogE1rLhA7KoHVyiCd666TeNmmwmYdZmRq2T40AsRjtlqc8MdktJrt11GEdY8U25rCNO20TTvuE0z5JxGU3A3FMQbG4HBaXE4nV5bJOu2xQ7NMuIDMux8y0Y2baCWTGNTPtcrmcj7q6MjMz9+/fbzKZAuEmIGL0ev2ePXvy8vJGtK2a9kvqh8Xqh8Wahxc17Rc17Zc07SWajhJtRymUMm1nmbbzsq6zXKcs1ymvQKkY7KoY7LoK5NE1KL8MPf5l6PF1KJVD3ZX67iogT/6tf1Ktf1JteFJj6Kkx9Pxq6LlhUN0YVtVCYRkd6a0b6asb6fsNSv1If72x/3djfwPh8ulAIyYS4GjS3IHSjEAc1baM6lpYCgfvjwEECYWAv3F927j+IZT2cQMLHw875cRIF5RHE8ZHk4A5iN3T7smnTwBtph6zSQWll+NsjOUM4AXYgnhNaK0TOiCTLFu2Sb3NrLeZDUAIT1NGhJTDYnJYTQ5AEoTJNuYEGI1DjABJLvuky2GGMuVyTk07LVBYdGZc9plpO4TGMTPjnJ1xQZmenZ2+d+9eUlJSS0uLX2gCImbPnj2t95v0T6rVbRfUDy9QYqKPmNnZGbPZnJqa2tPT4xsa/8QUFxfn/5g3+Pi6uq2IEjMxrAQSdTZmdnZmdnZmYGDgww8/dDgcPqDxQ4xarU5OTh7R3B9oO0+JgY4pUolxOKxWK3BPol4JETM7O3Pu3LmVK1du2LBhLmj8EPPVV181/XFT/bCYEhPR4xinwzY8PNzV1WWxWFxgNOM5jkHEuN2zTqczMTFx2bJly5cvF4XGFzEOhyMhIcGoax94cJ4SE7nE2G2W0dHRkydPJiUlVVVV2e22adecxMzOzioUihdffJFhmJiYGG9ofBHT09OTnJxsVDdRYsYNHRFKjN1msVqtx44dS0pKOnDgQEJCwtWrV202m8vl4N8rERvjdrtLSkpWrlzJwC0lJcUDGl/EtLS07Nu3b/DRdV/E/LQJZQ3/fljaQe+uZXR37XRYR0dHjx07lpiYWF1dbTAYTp8+vWXLlurqarPZPDONbrDB3TWfmFs3rq1du5Z0qwRiampqFAqFtrN8LmKaMl5nGGZdxg/oeUzzNylzEXP30GqGWX30Jn0eM7Boz2Mcdsvw8DByRtXV1YWFhbt3725qaiooKNixY0d1dTUYCANoPImpvykgxsPM+LIxfoip2bmOYZikgwE8wfvxaDxDiUGPiReNGKvV2tXV9eWXXzY2NhYUFGzbti0tLW3Lli2VlZVnz57NzMy0Wq0Ou80vMbGxsXwzEzwxyMB8+pP3M9+MT4lFY1Yfqc09AnBht3ezzoBnvrf2vMuFFKBnvvcO/wWHwf87csAz36KPuMAd34H3Eg3/+x7DMO+shX//vvsdhmHePN4Invm25rzJMEzqpT/oM1+XY8rpMFssFrPZnJeXt2nTpl9++cVsNisUio8++qihocFsNlutVvLMl++VPGyMx03TQhCD3xLU7gJG6B+ZOqXQxkBc3s06M/T4+uVtDMP85bu6Sn3dZ4Ch7dn6J9X3Dr8BKNmRY6hPA4E7joBXBAid5O9YYpi/VcC3BH8qACXvZZca+0uPg/I+rhigxIA3TU4HuEX6+eefP/744/LycpvNarOBRzLHjh1LTk6+c+eO1WqdmXb5tTEMI4BEcMA3Pm6327dXmtvGlGk7v0khliF+d7OQmLtZQlvCMLsKK5GB2VUE3yvV/w8EJec+RGdXEXqvdHQ3MC3pfyIbk3wcv1c6DsP3tTbuA1Zn5wkjJQa8WppCXmnv3r2VlZU2m9XltM247OjBzPfff5+RkRGgVwoZMRp0l+Q1jmnOBMNhaFoyATdzELOrUPAmch7E1FckQ8eU/TFwT7fBG3LqlaCNmRofH9doNGaz2QVfYqM3kS6n3Wg0ajQaaGP8j3xDR8zDiyVJgA2Pe6XSf4BB7pEb5TrklQAxFWXA++B7pXN/Bcne3tMC311fzvqspbtSX/hfINCfV3pPUcR6Jc7G1I9c/DtIC6qyrxXOqaDEgMkPzimn3WKzWl1Oz3fXTofdZkODmEX0Smi2A/JNbIcx8HnMjRQwnADWZTXYgcQM3kxFQ1125IugQdHehsR0V5VvR8cM8/YbyCv5Gvnyiek/ngqTvpdTimbhUGIQMYHPdvAx8g2ljVmo+TFwHPPu4XOBz49pzX4TuiR23hYlZkkR8/N3bzMM88ax+sBnVEEbk/w9nVEV9IyqSLQxil3YKWFcAiIGDnsZ5p19rXQO3jzm4EUiMXTWJpgRHK5Zm5QYOs9X2jxfSgwlhhIDPieg3xIs1LcE1MZQGyNTG3Pyn2/hO5ykDO2vKeuSMuj3SpH4vdLi2JivPmUYwWwHSkzEfuG2GMSA9wNJXwm+iWSJIfNjEkqVV3S1u9mXBtuyyLsCZtth+k0k+t5WJt9ELhIx6zJOihHDzo9pzlydcvYK/Mt+RXv30OqUc/QrWjl+RRteYk6TSXfrMnN1SjQH7z/LwHfX+UfBG4C/lj2i313L67vrxSBGA+f5eo9jmjNf/7QAfKnfnLkaEnNFp6wY7MpKiU+9y36pfzgFTHUQzI+hX+qjJSCi/ZkvmhyO7pbIvVJBAgpYFw+Iac5cjQ7fPZQPvygAR3DKJiUGrBuyhMYxdDWQiZHoWQ1kUbwSXT+GEiNpZji1MdTGeADj51sCSgwlhhLTCpfUW4qrmtFxDH0TKdM3kXTlxChZOZHaGGpjqI2hM6osTxdudVZqY6iNoTaG2hhqY+ia4fS9UqmWroMXmavM03EMHcfQcQwdx9BxDB3H0HEMHcdE6q/l0HEMHcfQcQwdx9BxDB3HROc4Rt3bMaB6KJT2AVW7WtWu7uVLh7rXWzrVvVD6OtUCUWr6xKS/S+MpjzT9nqLtf6wd8JZu7YC3PNGqPUWn7hETlU7jLb06jZho+3RYBrV9POkf1ApFNzAoIupBHStDOjWQQfXQoEZMtEODQhnSDg3piOiHdDwZ1A/xRD+oZ2VIr/cWvUGPxaA3sGIwGAy3bv7K/10CyevgDffVD3XXUFk6GmhsbJwXMfCXLAoHHlBZKhq4c+cOJWapdHZILmxKDMVFmgYoMdL0FZLLNKIzocRQYqRpgBIjTV8RbR5CUnn5EHM8hyyBxsTlVC1OR36xk2F25i9OWVFSiqyIwaBUbV/HbLy0YHfslz6hlASP7yIRo7p3trY8x6dVPJ7zFibmAX8/+LbNVRwlZi7NBBK+GMT03v/5v/+2YcWKFT4rxKeE7H+xk9mYczCOQX4K2B52w64ERLiUv5EN/eQLtgguJrJVXD7riO97a/vtBzA5MmaeSTgvicsKPbs+FSLT4hacGIKLBGLyNzKgOwsHQI8y6w4eB5oFPUqM0Bc72X0QgWFBwYOSqu3r2OSFA/kb4VlePg8KeTYGE+OdhE0o024LI2oLSwwflwCIwQaEG8TgHn1A+p7twtsH4yBJvAgPCtlAYnJQfh62RJQY7yTQ5LCwLtiIKowdH3TRC0iMBy4BEENMCLmyeUAIL3o/xBD3xHY2L5+5iPFMAupwGzhEOkwm3QF2FpCY2vKcFbztzTVxPrkmYxd+/Xg9PbdXwpYAuypBTJQbLx9RYkSS4GoISfXZBJwkqm3SAhIjUbn+iEGOCTsuPBoFKMChMTiBA6ELwzG9nRcY3DAMHCrxSOI5JpCEO1zA+3yJKpIFkfIhJjh18Lo8qq9s+bBFiQmO1KWbihKzdPs+OLsV6cTQ/l5sDVBiFlvjwV3Z8klFiaHESNMAJUaavuRzrYerJpQYSow0DcyXGCfdlpgGKDFLrMPn3Vw5EtPZ2bl37964uLhNmzZptdp5t5FmEEoNyI6Yjo6O119/PSYmJi4urrm5OZRtpXmFQgOyIyYtLQ3hcvv2bdJAtVpN9ufYUeWuZ5j0Wt7Z2nThMe8U3Q1eA/IixuFwxMbGxsTEbNmyxWQyoWY1NDRs3rzZXxMhMQJmKDH+dBbUeZkSExMTs3nzZpPJVFdX99prr8XHx/trnSp3/frcWvBHxUalxPjTWVDn5UWMzWbbvHlzDN4SExNfffXVmJiYr7/+2l/rIDEqZ206g5khxLDmB8yJYd0WPFWbDqfQpNc6cQSckgSQBP5KX0LnZUSMzWY7c+bMoUOH0MgXYxMTHx/f29vrr09YYpwcM4QYkpQfh4UBwoJIAbuAKBLLCTMTjI1IVkt3Ry7E2O32M2fOnDhxor+/PyMjIzExcdWqVWvWrDlw4IBKhf2Mr27i9TOLCo8Y1pwQKyM8hZng0kHjw/4hhsdX6UvonCyIIbioVKojR44UFRU5HA6JncAjBjqV9FqMhYijwqeEVoQjBjMksQ5LInr4ibFarT/++OOJEydUKlVOTs758+el4+IU+hJ0tJ44Gd7wBe36JAZ4J2pY5qQ/zMRYrda8vDyCS0lJSVC4eBEDmcHjVuKT0tPZRzQ+iUGGBzsmyo4HO2EmJj8//9SpUyqVSqFQlJaWelSOHspQA+EkxmazffbZZ21tbd9+++3ly5dlqB1aJW8NhJMYp9N57dq1zz///Nq1a941oyHy1ECYiZGnUmitfGiAEuNDOfSUiAbmS0ywtzYiVaFBEaGBW7duzWsF6FF9h2mwlcrS0cB8iaGrzIdrTn+4yp2vV6LEhKvnwlUuJUbatxfh6if5lEuJocRI0wAlRpq+5HOth6smlBhKjDQNyIcYuH6u1/KFlz5By4/5bVVwi1WJLqXmt6wlHUFmxHAr9sJeAcvsxnGL83qtWyayMq9XHJ/WmxIjmf5FIibAVeZ3foJW6WWbcftg3M6DvOWcvWigxPi8HiTTEEhui0EMWdjXZ4XQ5f7FTrLcN1oCnls/HC0bjmY6gfUvgcNCG1njGS+QyS26CRdyRrG4QByN+WQ7/jEEuqZ8oHgtODEElwBXgObMRv5GdpVUxJD3QvCeK/Pi5eYJZIJVesVW+wXowGWn6aK9XvZ7rst7YYnh4xIgMeD3B8D4F48wSPcTw8DZFbFfGAAtx6NgIQfcGvTc+BqXAk0RXkk60KttLp1Gd/gCEuOBS6DEIFbyETdwLWdkY4Tdj3qFM0iEEn/EgIXjvYmBVxhdUz4Q1heQmKBXmRf0HLExAhfDmgE/xAiS8L0SXgaceCVik8W4DESPSyfOAhIjUYnYQSAjQca/hBjhKvOsB0Guiox82Y7HXkmYhIx8EZHAuZGRL+fyMEyEIboj1IB8iKGjh8jQACUmMvpJosFewEZRYhZQufLp5hDWhBJDiZGmAUqMNH2F8GKN0KwoMZQYaRqgxEjTV4QahhBWmxJDiZGmgfkSMzmmNY/pqCwdDcyXmIj4jI9WMoQakB0xd++23L3bEsIW0qxCqwEZEaNUKn/IvqDYU6zYU/xD9gWlUhnaptLcQqIBWRCj0WgKTl3K+rTk/Jmy9vb2jo7Oi4Xlit0luUeL+/r6QtJOmkmoNBB+YsouXc1KLi04XdL6Z2tX1yMirX+2nj1dkpVcWnbxaqCtxUs5c2s9B5qSxgtUA+En5l/ZxVnbyvKOXvy9voHg0tX16Pf6hryjF7O2lZ3KvhBIayAt3LKqtblkuXlBat6iiYJwehCgBsJPzMlviru7n5z/qSwrpfSHrAu/Vtf+Wl37w+HirJTS8z+VdXc/OflNcQCNCZSEQOMFUOTSjCILYgxw02q1165U/jPtYvaeSyVFV9RqDQoPiBhxEDy9FFmnlV2wlzuPjROJkZ7L/SoGFw2vDAzWsgcx0JxjnJhdejq6SZIRMYiPa1cqr12pRPuBE8NfMVysw7jzHFpcGP79AUAGXr8XoAP3+YGCHz3AUcVzFKtFVIRFCTHwmuf/HBfuHGIzeMtBsyaBdwqYivW5Kq7veUtKCwLJz1zwQ/E+H0FcfvT9jxZigCUgzgF3k8gvEvDQwh2NY3v4FNz/wmiioarc9eg3d7xqQPKOnh1ZENOr6iVuyMMr9ap6AxrHQMeC/QS0EOng97kwRcCeoO7kABC4G9ijfOz8eyUeHgCZXIhN9JAxV0vCT8zV8spTioslFyqUSqXBYCDEdCm7Si5U/Cu7+Gp55Vy19wgHPc5uaDhCHA/5RQJEFjtEAQYHbygBlwN/5MuLhjHhwIN18KbPo2rRcxh+YpxOp9ForLpecyq7qKig7MJZIEUFZaeyi6qu1xiNxjAp24MJ37XAzsp3rKg4KwtikCYtFssfDY35/3cx71jxrdo6s9kcRg1LMxq8AVMY67w4RcuImMVpsM9SeO4Hj4B8xke3VEvrnQQlxh8S9LxQA5QYoT7okT8NUGL8aYieF2qAEiPUBz3ypwHZEUNnbfrrsjCflxExdNZmmFkIrHhZEBOyWZvcI1t0cyzpKVxgChON5VmuaKRFCPT3IJGtJ35wHVSNwk9MqGZtQm1wuoBz8BaDGLFyRbpiMapC3qyLlA+CQvKgMfzEhGjWpmiPiAbOoc4ggwMtItB4QVYDJfNjY0JSh/ATE5pZm+LKgKH4QS62P94uRDQafmcJnuiKzseD+YmX61kErgJ+A8qdx5UiMcTLIk+gQXlzz/0jxIi0iJTA5sXVgWQeEK2yIAZNdZjPrE2iKmGjoZZQp4hYZJJILBpQqNh8PByGJtqQLITlkiPuPIcWFwahRDNrRMsigZw/AVVlqyCSI8larEW4NFA5fuu4zEm1fe3IiBjEDZntQGbMBDQ/hlMfv7X8UN4+1Cea5uBlKHA0/B9mh3uClxAk95y2xyuaF5MQy9oT3imxTHhlsQlAtmKhuIr4HBcL4cxWB0fjE8OF8TPn1X/u3WghBlw0PAV7KYtTF8/YYL3h/yAVuy/MD/cJPyIqQhiPKxabIpKC7OAS2LjsBc/VXbws0VCvuX84lqAMsZK5MFANkoyr09x70UIM7Gpsr6ES0nNVYorjdTG42GFP8fWH93nxQDYoaxCIWcA6JSdhgCo3nHP/SNfjVoA6cfvcnqAhvGsIN8rHf1kQE5JZm+zFys6pQ/3KqYinOOIVyMQ80WjQ17OuizfyJanJeAKNCjzLZVOmp2PThxKSerHxWQBBD7IpxMvCNohfVbbFPIQDJgaBhOuAM/fBCXcq/MSEcNYm16wQ73n0U4hzF2YnqSyCiDCPhTwKPzFynbXJaV1gwrngBdmTVpY0fxKaCsuCGNQUWc3aROOioMx2EB3Dc3XYifnLBfkxSf7EX5aBnZcRMYFVmMYKswYoMWHugIgrPnhiGhsbDxw44HA4Iq7NtMLz0cCtW7fWrl2L/TX47+ZtggNeONhVKpWpqanzKZumjUQNVFRUrFq1KhhizGZzQkJCJLaZ1nk+Gjh58uTLL78cDDFutzs9Pf3+/fvzKZ6mjTgNbN269bnnnguSGDSUibg20woHrYHa2tr4+Hg+LsuXL+cPV3yNY1C8nJycqqqqoGtAE0aQBgwGQ0JCwrPPPssnJjY2VhoxZrM5KSnJYDBEUMtpVYPTQGZm5ksvvcTHxeNGye12+7cxbre7ra0tKSmpqakpuHrQVPLXgMFg2Ldvn8ctEkKHb2ACJcbtdptMpv379ysUCq1WK//20xoGroGpqamKioqNGze+8MILHtbF28BIIAaBVlNTs3Xr1uTkZIVCUUC3CNdAXl5eWlraBx98sGbNmmXLlnnjEhMT42FgJBOD0vf09Lzyyiv/QbcI18CKFSuef/75Z555xpsVhmE8bpEIOgGNY0hs/s6GDRtES6KBUaCBDRs28Puavx88MSiX2NjYKFAQbQLRgMe9NJ8VtD9fYrxzpCHRrQFKTHT3b+hbR4kJvU6jO0dKTHT3b+hbR4kJvU6jO8f/Bz3v5Q5/q6nHAAAAAElFTkSuQmCC;" vertex="1" parent="1">
          <mxGeometry x="-471" y="285.5" width="187" height="186" as="geometry" />
        </mxCell>
        <mxCell id="pZx_xOZxBOp0TPrqWiV3-6" value="" style="shape=image;verticalLabelPosition=bottom;labelBackgroundColor=default;verticalAlign=top;aspect=fixed;imageAspect=0;image=data:image/png,iVBORw0KGgoAAAANSUhEUgAAALsAAAD4CAIAAAA7PgD/AAAgAElEQVR4Ae2dC2xUx7mAj6qqinp1W650dZXcXimOqlZIQRBaaKMQXZJGSIgSc3vj9JJWiVzAhGDfVDgESgSUOCbG5REI0JiY8DDGYBtjDKYGDAQMBmOefqwd8Pqxu17vGr+AtXe9a2zfOzNnHufh9R7v6+zurEb27JyZOTP//53/nz1n9l9hlL+4BLRIQNBSmdflEhjlxHAItEmAE6NNXrw2J4YzoE0CnBht8uK1OTGcAW0S4MRokxevzYnhDGiTwASJsdls9/grwiVgMBi0wQJrayPGZDJlZmbGx8f/4Q9/WMFfES6B5OTk3/zmN6mpqRcvXvQdHQ3E5OXlJSUlnT93qrPd0Gu902k839l8vrP5QmfzRZi+7WyGqeXbzpZLD1suP2y9/LC1AqWutoqutiswXe1qu9rVVtltIulat/lat/k6SJYqlHosN2Cq7rHc7Gm/2SumW73WW73W233WO30dJN3t67jb13Gvr6OmzyamR7baR/Y6mOofddY/FpPhcWfD486GJ52NTx7i1PXdk677MD140i0mR3eTo9sIU7OjR0z9vS0wtfb3tvb3tZE00GeCyTzwyDzwyALSY8vA43aYrM4nHUyyOZ/YXE/sLkenmPo7B/sfgjTQNTjQzaSewYGeQWev29knJlef2/XI43rsGXzsGXxC0tCgAyR3P0wDQ+6BIQ9KzqEh59MhF0yDT4dAGh5yDz91Dz/1gDQ8NPx0aGjI09jQkJaWtnr16p6eHl+48YkYm82WkpKyZ8+eh5Y75tqjppo8U02eueaIufaIufaouTbfXJdvqSuAqdBSX2ipP9ZeX9RuKGo3HIep2NpQbG04AVJjCUwnO7472fHdKZhKO+6X2u6fBunBP2wPymwPyuwPztibztibztqbztmN5zqN5TCJjD5svviw5eLDlm9huvSw9VJX6+Wu1grCZXfbVUwkwLHHfB2mKgRir6W6t71apNB6qw8gSCgE/D2y3Xtkq4Gp9pFdhI/BzvD4YQNMjY+7Gp8A5iB23fefdD8AtPU0OXqMMDVTzvpEzgBegC2I12OL83E7SE9EtlxPbC6HzeWwg0R46u9CSLkHetzOHjcgCcLk6vMAjB5BjABJQ4NPhtwOmPqHPP1PPQMwiegMDw0OPx2E0LiHhz0jw0MwPR0ZeXrz5s3ExMTq6upxofGJmJSUlDu3rtkelJnuHTbVHObERB8xIyPDDocjOTm5qanJOzTjE5OXl5f99R7rd6dM93I5MY87DSBFnY0ZGRkeGRlua2t788033W63F2jGIcZkMiUlJT0032q7d4gTAx1TpBLjdjudTuCeVL0SImZkZPjgwYNTpkyZO3fuWNCMQ8y6deuuXTlvqsnjxET0OsbjdnV2djY0NAwMDAyB1Yx8HYOIGR0d8Xg8CQkJ3//+9ydNmqQKjTdi3G53fHx8V3tt291DnJjIJWbQNdDb27tz587ExMTTp08PDrqeDo1JzMjISEZGxnPPPScIQlxcnBIab8Q0NTUlJSV1ma5xYh7Z6yKUmEHXgNPp3LZtW2Ji4tq1a+Pj40+cOOFyuYaG3OxnJWJjRkdH8/Pzp0yZIsDXsmXLZNB4I6a6unrVqlXWxlPeiPlmPuoa/n2zoC7kn66vfPy6IAj/ueoO/3St+HTtcTt7e3u3bduWkJBQVlZmt9u/+uqrhQsXlpWVORyO4afoAzb4dM0Sc+FcycyZM4laNRBz5syZjIwMS33RWMRc2zBNEITZG3ah+zFVny4bi5gbn00XhOlbzgfhfgwiJmk7vx8jux/jHhzo7OxEzqisrCwnJ2f58uXXrl3bt2/fkiVLysrKwEIYQCMn5tJ5CTEyM+PNxoxDzJmlswVBSFzvwx28r7fMEoJFTAu/g6d+B8/pdDY0NHzyySdXr17dt2/fokWLVqxYsXDhwtLS0v3796elpTmdTvega1xiJk+ezJqZiRODDMz73yjv+W54n1g0Yfrm8qzNABfx9Vr6XnDP90LKa7RkH7rne3PjL3AZ/L8kE9zzzX2bFi7ZCp5LVHwE3dBM+HflbdbGVK4ChfD1emYRvO17fDvgGr5mf3IPPnyIkXu+HrdjYGDA4XDs2bNn/vz5J0+edDgcGRkZb7/9dkVFhcPhcDqd5J4v65VkNkb2oSkYxOCnBOUfAGX9Ka3dILUxEJfX0vd2fHfq2CJBEH6x9WKp7eKHgKHFm2wPym5u/CXQ8JJM+6UVoHDJZvCIAKGTtFUkRvh9MXpKQIi5CnB5PbOwq+1KyVJBEH69vbISZoSU/Fh8SuBxg49IBw4ceOedd4qKilwup8sFbsls27YtKSnp+vXrTqdz+OnQuDZGECSQSN6wxmd0dNS7VxrbxhRa6j9dJl7XgjBreZWUmBvpUlsiCB/klCID80EufK506c8QlMxbEJ0PctFzpS3LwQo39TayMUlfiM+VMDF3Nv2KnBNlkvMr72b+Wix8f3ePObaeKyGvtHLlytLSUpfLOeRxDQ8NohszO3bs2LBhg49eKWDEmNGnJMU6pioNLIehaUkD3IxBzAc5kieRgSIm+Sh4Qi55EnltDXZVfyyJLa/U/+jRI7PZ7HA4huBDbPQkcsgz2NXVZTaboY0Zf+UbOGJqjuQnAjZkn5UK/gQWuZvPFbUjrwSIKS4E3gd/Vjr4O9Ds1ZRq+Oz6WPqH1fdLbTlvgcLxvNLrGbmiV1LYmK4j78DRrL4DiSnJ/MtdsKECPbsuhquZX2+vApsoYmQdM+Tp9wwOuJzOIY/82bXHPehyoUVMCL0S2u2AfBNQFXjB+zHnlolrzVnTQQYSYz2fjJa64soXQYMavQqJuX+6aDF6Lwiv/hJ5JW8rXyUxrRVdRyE0qJvZgBi0jkEFKfmx5ZU07XbwsvINpI0J1v4YuI55beNBvj9G3G8V/P0xEU3Mga2vCoLwy22X+I4qvEOPE2NtVO7By/gAOyWMCyeGE8N3bfa16XPXZkR7Jb7PNwz7fDkxfGe4tp3hnBhODCcGfAGFf/skWN8+CZmN2fm3V/AnnMQNlrPLZidu4N9XisTvK4WGmHXvC4JktwMnJmK/4RYKYsDzgcR1ku9EisSQ/THxBYbj7eXLxYcGi9LJswJh0Ub+nUj0fVudfCcyRMTM3rBTjRhxf0xV2vRl+4/Dv+K3aG98Nn3ZQf4tWj1+iza8xHxFNt3NTstqN6A9eP9VCL53nb0FPAH4XaHKPV/+vWvwnf5wfe86FMSY4T5f5TqmKm3a+/vAN/Wr0qZDYo63G4qtDenLZiXfEO/5blwGtjpI9sfwb+qjEBBRTUzNEQSN+GGJfFbaF49KZs8CxFSlTUdvX/ssG36jALyDWzY5MSBuSAytY3g0kMcPoycaSEi8Eo8fw4nRtDOc2xhuY2TAjPNdAk4MJ4YTcweG1IvFqGZ8HcOfXfNn1/zZ9UB38CInchvDbQy3MdzGcBvD4/nye74FltDHqOLxYwIRAZqvY/g6hq9j+DqGr2P4OoavY/g6JlJ/yYKvY/g6hq9j+DqGr2P4OoavY/g6hq9jvMYMD1aMKv4bbiH/DbdArnxNzXVtxhppqm0z1pqMtaZmNtWZmpWp3tQMU0u9SZIM5ha11NpglqdGc6s8WVq/s7Qp031LmzI9sJjkqd3UpJaM7WZlam43qyVLSztOVksLk1qtFmlqb7OqJJO1XUwd7SaQrKYOq1ktWTqs0tRh6ehoJ8nW0c4kq62DSTarTUwdNpsy2ew2nOw2u5jsdrv9wvmz7O8SaI6D19lyqeP+GZ5iRwJXr171ixj4SxY5bXd5ihUJXL9+nRMTK8oOyIXNieG4aJMAJ0abvAJymUZ0J5wYTow2CXBitMkros1DQAavH2K+yCQh0ARhaXZO2901S8WMUqlrlgrzjso/oH2R+crUzNPKyrwkkBLQFTG+65sTE0gINNmeEBFjvLm/vCjT68g0WQhOTFQT03zrwB9/P/f555/XSAyDxenFYrg80Rkxh7LniSFq3luMvRJ1cNC7hU24XucbqaMKuo0huPhAjKh6QUDuCWNxevHsVxZXolVL9jzhvTVwiQPXMYAk7MsAOjAv1olUleics+ASw+LiAzFY9+KSFhNDrAgiCtDDHAIAITiwX4MGafb6L3A5RyeQEggiMTJc/CKGYoEmLxJTuX4qNDlSYiBA4NCYH7UCKcFY4zKIxJQXZT7PvH41Y6pX4WILIRoM9Ola4Xpk5geYE/wxm3gl0gN3T0QUgcsEkRivfCiv8rGJuZvTxjgm6G6wV7qbg2wJ8Fdk5UsrY5gCJy+Nk1JOM+JL9ENMxIsyRmDixHBStUmAE6NNXjFiSLxMkxPDidEmAU6MNnl5ufhi5BAnhhOjTQKcGG3yihFD4mWanBhOjDYJ+EuMh79iTAKcmBhTuN/T1SMx1o6OZduP/2vqpWMny/yeIO8gwBLQFzEOhyM9+9iPP/r2jU9Pfp59/J/+zKEJsL79705HxBw98Y//+MuFF9eezSs+3dDQ2NDQ+M3Rk//80ZUCXVua8lRBSC33XxER04MuiLl8pfJX60//20cXM74pQqyQv4GFpjw1trQbDAzDTExtbd1vN5b8+KNvV+0urKmtJaCQzO07d/8748SzqwJzFXNi/GcozMT8+6rzr6WVVt24SRAhmbp6Q9bhEz/75NzKXccSNp0Yf6rGrDniRmHkJeh7ZFiA/0CvOVlGj8dDj2OvQmqkZmXNQZXYasQ+AfCywNnmZBkZCOUdyt+PP4VIqBFmYn67seSFNeXHS88SUFDm2KkzszeU/s/fjlder7Lb7e9uLh5PmOWpQH+qtYxE/VS9tMzjQaVAv7gHgA7Ms4WgHqpADntwYwgWbi12SE+mOqpILQwzMe9uLr5wqYKF5vylij9uLn553T+KTp0BIZHga3xiVNVDbAZenNJazCFgd6TGguqfNgAKxpixpTiv7BCaGEJRpAKiGHf4ibHb7ee/vfzCmvIDhSf/d0fhzz45d/DYKavVimmxt7S0jEsM0A72LeIciUWgdkC8+EEFrGgiEGkPamyMS4xsALBriI18aOSkkZgJPzH/f7+OQLNlf1Fraythpb29vejUmeTtxwpKxruVBzQjuZ4ZAsDlj7RJOVHUh8sarHPQAvYmqUYYpN1Q9CQ1pSSw1aVHIvFdmIn5e+6JHTnFCJp3NxcTVux2e/nFy6k7C3cdKjaZzD5JlvoFggda6Kamkg/VqA5Ci9YXWQNKF1swK1+mGgMUzrLGiqkJzkDfkso+zUPnlcJMjNPp3HWoeNuB41arlRBTffNWevaxT7OLamvrwiS+6DILARVimInxeDwImh05xe9uLq43GHbkFKfuLLxSec3tdgd0pho68+JhNPQSpVXDTwyB5t3Nxck7jpWeOd/f3x8OaVMvgpc94RiF7s+pC2IQNJcqrnZ3d+teYrE+QL0QE+t6iJz5+0tMGFcbkSPkqBrphQsX/IoA3Wur67He4Sl2JOAvMTzKvJdt91F5yF+vxImJSiy8TIoTo+27F15EGSOHODGcGG0S4MRok1eMGBIv0+TEcGK0SUA/xNAgvDg6q7aZeLksxj7kJZB9CM4ekafQFTE4OisbDzEIIeyOvod+9yAiFTY2/SGaToiI0RhlXhlFMZDi4MT4g10oiCGBfb0OlKWE5EFMzUwQmReaHxjaGe15wuHjYdBNElyThP2lNVG4TdrPbPILK2wk6bs5bfIm1EvicwWSWq+i0PWJgk4MwUVDBOjseYIYVh6sM8To30Cj2G2BmOEoDyrgINB4UaIelR73czeHsTE4yquyCY8FPMZ6ILjEsLj4QIy4Z1IgQZ1JNHkU0peYEBjGVxbYt40UEpOD+pPZElVilE2gyeGh6pW2MIjEyHDxgRhiQohZxjZAKzEMW3DOTD9jESNvAsbAQ9WHlBi/o8wzgebFdQZBSuKVsCXAhRL/heAbjxiVJpha7p6k7imINkaJp9cSstrFqgIDlWiajTWPV6OgAlwaAw+EC71FpQdjQD5I5q0YxwQQpG95qHpWIzn6IUYyLK9ssTWlSEmvBp87YTvk+XEkwIkZR0AcO5kEODGcGG0SiHRitM1WdrnwtxOQACeGM6dNApwYbfKawEUZZU04MZwYbRLgxGiTV5QZjAlMx19invRZHH3tPMWOBPwlJqq+7scn44ME9EhMfX39ypUrp06dOn/+fIvF4sMseJXQSUB3xNTV1U2bNi0uLm7q1KlVVVWhkwQ/k28S0B0xK1asQLhUVlaSKZhMJpLnmfBKQF/EuN3uyZMnx8XFLVy4sKenB4mmoqJiwYIFPomJRrILZXhLEKpIQ6i78AzSJ/n5UkmnxMTFxS1YsKCnp+fixYsvvvjirFmzxp0MVARVXHmWejzo8Ea483GQ406WrRDiGemLGJfLtWDBgjj8SkhI+PnPfx4XF/fXv/6VlZFa3le5+VpP7Rx+lwXl5EHpdOyp6ogYl8u1d+/ezz77DK18MTZxs2bNam5uHnsK8Ii62OQOgIa6QwFa6XFsnEiNYPw0gfogYWRpvMVZHAeOQA3mRvOwPR4hqonfifGHx5FSIA7rhZjBwcG9e/d++eWXra2tGzZsSEhIeOmll2bMmLF27VqjUf3nBtjpU6mypTRPj1Ot0TIcxxkAhFCCJeMEgWarQvUpO6QnA0Nhj0uGRnoCMYDhANiqNA/xIKQwIxU5o50GMacLYgguRqNx8+bNubm5moOlSXVDBUavQUXYcOYQuMJD8NMEqoOUFop4UEpY0NiqNE9zdNpBzIWfGKfT+fXXX3/55ZdGozEzM/PQoUOacRF/+kZxpeErlv0dAipfmhPlC0wM7QMrTVpNrRTXwP9l6kKuD3QsPYFYTdqKEyOTnvyt0+ncs2cPwSU/P38iuMBegcnAhhooJzWrnBIADiIYqIJYH4TGxWqUdCepRhik3WCXhoCgI5BMFVcnvcKjYJDGMfsXu2KO415AY5qnOckpg/UmzDYmOzt79+7dRqMxIyOjoKDAz1kC4YovJG6gIPjS0U8TKAaJ1kx4oPjH6ki1Oamp+NfBWDaYPJrlGKz6KVJl83AS43K5Pvzww3v37n3++efHjh1TDi6sJYxKwjoOvZ08nMR4PJ6SkpKPP/64pKREb3JhfIHehhbm8YSZmDDPXn564sUEvOyR1+DvOTGcAW0S4MRokxevzYnhDGiTwLlz5/z6XQIeM3wCm6sjuom/NoYTE9Hqn8DgOTH82yfaJMCJ0SavCVyUUdaEE8OJ0SYBTow2eUWZwZjAdPRDDIyfqwhfePQ9AUdq9a7aiQWrUg2l5v1EsX5UZ8TQiL1QMSDM7tTZYmxfFVWpRObVFtiME6MiVe+GJ0TE+Bhlful7U3HgTDCTyvVTl65fzInxrsIQHw0FMSSwr9e5oct9zVJqUaCjofHD5YHggcNCLxI1EwfIpEE3YSBnVIsW4mrCe4szX0ERX3lMeV+NTdCJIbj4GAGaOprseWKUVMSQMhC8PJYzDjdPIJNE6VWL9gvQgcTwoL0+e/PgEsPi4iMx4BclwPoXrzCI+olhoHZF7RcG2CjAUg4q10OXJynEZ4GmiHWIXs2hr5djVHYSRGJkuPhKDGIlG3EDozUjGyPRtKgzapAksaLx5yZpE0QMCBxPP5FhYuAVxmPK+4J4EImZcJR5ieaIjZG4GN+IkTRhvRIOA068ErHJUsh8kWCs1QkiMRpFyV7uzPqXEEOiw0OvJHoQ5KrIyldUPLYx0iZk5YuIBN2QlS91eRgmwhDPSCWgH2JienGg8eoKp6w4MeGUfgSBQobKieHEaJMAJ0abvMilFrMZTgwnRpsEODHa5BWzpoVMnBPDidEmAU6MNnmRSy1mM/4S09N+u9tczVPsSMBfYrR9O4rXjnwJ6I6YGzeqb9yojnzBRu0MdESMwWDYtelwRkpeRkrerk2HDQZD1Eo9kiemC2LMZvO+3UfT388/tLewtra2rq7+SE5RxvL8rC15LS0tkSzeKBx7+IkpPHoiPalg31f5d27faWhoJOnO7Tv7v8pPTyooPHLCZ8F7DxSEwx5KupMWkmBiPICMREr0TfiJ+fumvPRFhXu2HLl8qYLg0tDQePlSxZ4tR9IXFe7edJiO13vOmDWHiXinqCuFQzxMCyEtNNimPuPUKyYV6oLwE7Pz07z79x8c+qYwfVnBrvTDZ8vKz5aV79qYl76s4NA3hffvP9j5aZ6PUgHAlDNRKOXNKBzMEVLoa+A7X+sx54imrC6IscOXxWIpOV76txVHNqUczc89bjKZUbnPxCBg2MClUFMkVBkbOF5ZqA6C3EuRdmIkWHocGydSgz0drUYiBoPzZeHgoLixeshfXQGnI2IQHyXHS0uOl6K8NmKoymkOagDHLQW6hHmgP3khMTVjqIcep73TMoypWs+SMZA48iCDB6He4xgDCXdx9BBDxY7VB2TLlgLVQVDGL2TUQmwGXgvT1swhsAfU/zj1eIDM6XWXjRpiZNoT1QuueWLxMTGqhdAS0KqiokiMcIY9CTHSFuo90wagV0yFpBQ5VOxWdUcJOyBdENNsbCZuSOaVmo3NPq1jJPJHtoU4IKxV4gdYxZJCyAT2E1CzoYtTDzkCqxo8VFZFOsuHn5gTRaW7M47kHy42GAx2u50Q02BoyD9c/PdNeSeKSscVmhwYqH60VAF4oBezFFUtFH8QQ6yNWhPTxXxqR2Wy43hRot4z6Qa7NsZmocmBdqjLcScb3grhJ8bj8XR1dZ0+dWb3ptzcfYWH94OUu69w96bc06fOdHV1hVdAfpxdibGXzrCz8lJFH4d0QQwSxcDAwJWKq9nbj+zZlneh/KLD4dCHiCY4Cm1Gg1kwTfB8oWqmI2JCNeWgnodxP8yS2+spkR+LgBUMmgUnxqs2+UGFBDgxCpHwAq8S4MR4FQ8/qJAAJ0YhEl7gVQK6I4bv2vSqr/Af1BExfNdm+HHwYQS6IIbv2vRBU3qpEn5iArRrk96dx/frZSIGd0o03PRg+tPQSnZOzW99H6TyHrHvbTUPi20QfmICtGuTkSBQtmYts7f0IS20B11u32Tmy+pTLc9OTe24trLwExOgXZusBNm8r+JgxMpkvbb2tZ7XTiZ6UMMcAztOXRCDtjr4t2uTlSDJA1nBnZHsZicoQHw3H1kS/E65K4ooVO6lJE0kT72xcSI1mGfmcBcOfpQu/hi66iDh/gdJRToAeAIyRzJCAoakJhlFoJ6M64gYxA3Z7UB2zPi0P4ZsVGL2xkh3vBCBQhkSUvAOA3JYqQqiE5ihx0kT9uTirj+gNaZrlGcLVbdvki2D9CR4WwQ9GRoOWwOV4Br4Pxm2ooAcmUgmmogRL0lmgcvKiuRJRrKpk5bSnFSg9GoVV0m0InMIDIK1aKAPrF3aYKxSXEPZITQcmEGmTzpG3FZek2BIq/qTiyZiGHmKIsFCBG9JnmTYQnoYOg7sWYhomd0IpD3JMI3FBkBrtI8JEUObk0HAodH9qLL50uEQJ0ksqVpntFtNOV0QE4Bdm+Q6lsyeFSLJk8wYxEidGbAQodu+iccm8V+SKWE6MYX0IG5LSnAB/k8O+JUJPzEB2bVJLb9EGqysSJ5kJMQATSCHAnuAph25OXQpEz8R1O2bzNjICdH9JfoW2QtmgOINKNxWXhNdAWIliXgm9Cb8xETvrk2iEKxLUhDJGV0QgwQYZbs2CRVePAypE0EZHRETQVLzYajUNzCf3Xxop/sqnBjdq0hnA+TE6Ewhuh8OJ0b3KtLZAHVHDN+DpzNC5MPRETF8D55cObp8rwti+B48XbKhPqjwExOEPXjMIx31WQenlLkNG8DnOMEZ68R7DT8xOtmDN3ERwpaQFsqJLrft+TlFsXn4idHJHjz/xOnrcwBf6/k3mqC21gUxAd6Dxz7WpZ4CGQCoMvF+bGq5uH2AeUpH6yPXBt4T00E7ptXgQXUQaCXUBb0NjB5u0uP4DKSGr9v2wLNS3Fh9m0bA6dERMX7vwUOPmqXqJ3tIRKVCnUAZQ31R1YEyUMQ2gHlKAwYG/wfKgEfZAjUN0ePKzkgnkrODYcKzqw4JPmcXB6reo9ooAlQWTcQgGUr3PmGKwH9wnApYJcscZHa54VISpY5YAtS5fMcdoxmmJrIEuC+8A4EMT94Jhow2AN2qleIa+Bhz+qBko48Y8boH0sLCZCTHFCmzTAmjHrEbepDmcMfAEhDngAul6KoQI20h7QPrX3ou1dIQR13UBTGB3oOHhS8x6UiRjAaUWUl9RuFAJ6mpohuQOS+RD+JG4PtQbtuD4wHrHimAmNuA/w8/MUHZgwcUCCXI+AWocSUmQKS0lKnPaECCktgAOxQJSGIhKiN9BXXbnriplwwj4IjIOgw/MTGwB08mc1/eUoZ9qI2dlQ9V/a+iC2LQNKJ1D94ElKSwaV77YPyn13qBOagjYgIzoQjuhXgx9iaL9/kAtJg7Mt4rB+YoJyYwcoydXjgxsaPrwMx04sRUV1evWrUqMKPgvUSOBM6dOzdz5kz8SRH8H2VekjdMOcg2NTUlJSVFzkz5SAMjgfz8/ClTpkyEGIfDkZCQ0N/fH5iB8F4iRAJbt279yU9+MhFiRkdHV69efe3atQiZKR9mYCQwb968H/zgBxMkxmAwJCcnB2YgvJdIkEBxcfGMGTNYXJ599ll2ueJtHYPqZWdnHzp0KBImy8forwQsFsvcuXO/973vscS89NJL2ohxu90pKSk1NTX+Doe317cE+vv7k5OTf/SjH7G4yD4ojY6Ojm9jRkdHbTbb0qVLuaXRt8b9Gl1NTc1bb73105/+VIbLM888wxoYX4kZHR11u93Z2dnJycmXL1/mn578Uo7OGjc2Nu7cufONN9744Q9/KMNFaWA0EINAMxgM69atmzt37gr+igoJxMfHz5kz54UXXlCyIgjCyy+/LDMwmolB7d1u97Rp0/6FvyJfAs8884wqK4IgTJ48WYnLBIkhHY11Ml4e6RIgKlZmfGf04tQAAABISURBVFr5KpuRksTExEmTJkW6gPj4kQQmTZpENDtWxl9ixuqXl0erBDgx0arZYM2LExMsyUZrv5yYaNVssObFiQmWZKO13/8D28p3JlmVNd0AAAAASUVORK5CYII=;" vertex="1" parent="1">
          <mxGeometry x="-180" y="254.5" width="187" height="248" as="geometry" />
        </mxCell>
        <mxCell id="pZx_xOZxBOp0TPrqWiV3-7" value="" style="shape=image;verticalLabelPosition=bottom;labelBackgroundColor=default;verticalAlign=top;aspect=fixed;imageAspect=0;image=data:image/png,iVBORw0KGgoAAAANSUhEUgAAANMAAAH7CAIAAADZ7T1hAAAgAElEQVR4Ae2dfZBV1bXgb6X8I1VTk5dUJlNmaqrk/fFSVsXCZBJSlqQGX6aoWD6j770hb4ip+HgahCe8pLgxOqbQIEFbQkqjaGyCAvLR8v0hdGhtREBARCIIdCPQDf39ITRfTd/uvg30zN77rLXX+bjf596977nr1inuPnuvvfY+a/1Y+5x7Vp8TG+UPW8CEBWImBuUx2QKjTB5DYMYCTJ4Zu/OoTB4zYMYCTJ4Zu/OoTB4zYMYCTJ4Zu/OoTB4zYMYCeZLX3d19hD9sAWmBhoaGPODNjbzW1tb58+ffd999DzzwwCz+sAWkBWbMmPGDH/wgHo/v3LkzewRzIK+mpmbq1Kk73t3a29FwofOTnqYdvU07ept39Da/J7edvc07e5vfd7Yz7/ee2dV7ZtfnZ3Z/fnb352f3OFvLnnMtH8C291zL3nMt+8637Dvfitv+8237z7d9KLcD59udra/9I7kd7Gs/2Nf+cV/Hxxec7dCFzkMXOv96sfMTsXWp7fDFrsMXu47I7dOL3c52qfvopZ6jl3qOye34pd7jl52t4XJvw+Xexsu9jVd6T1z5HLfPrpz77Mq5k3I7deW8s/WfPy23pv7zTf3nm/v79Hb1whm5nb164ezVi2evXmzBbeBiq9zaBi61DVxqd7bL7QOXO+TWOXClM3Gli2zdiSvdg1d6Bvt7Bvt7ne1q79DVz+V2bmjg3NDAebL1DQ30DQ1cGEpcGE5cdLbBi8ODl4YHLyUHLyeHLieHrqhtZOjKyFC/2IavwjYwksQtMTKSuDYyKLehayPOdn1k+Pq14evXknIbuX595Mb1kevXRkZGkidONM6dO/eJJ57o6+vLhr+syOvu7p45c+aiRYs+b/+k7ejq1k9XtX5a0/ppTdunb7Udfavt6Gq5rWk7tqb92Fq5rWs/vq79+Pr24+s7jm/oaNjQ0bBRbps6Gjd1Nm52thNbOsX2dteJt7s+e7vrs61y29Z1clv3yVq5/aX71F+6T23vPrW951Rdz+m6ntPvyO3dnqZ3e5vq5ebQ/3nzTrGdeV9uuz4/u+vc2d1y23MOcD/fsvd8616gXCDe1/ah3A70tR9QcF9oP3ih4yDF+qLAWpItsBZMX+o6cqn7yKXuT+WmaHaAdqH8ecPlzxvlduLyuRMSYsnx+ZMKYoFv3+n+via5NfdfaNbgArUC1kutElbJ6+X2xOUOuXUmgNTBK92D/d0SUMloEJ3DA33Dib5hAeWF4cGLSbFdEpvAUWyCxeErI8P9crs6krx6LTkgt8Q1oPD6yND1a0MSPsnf9eQNCd+N69du3Lh248b1jz/+eMqUKQcPHswIX1bkzZw585ND+7tPbW89srL1yComj8lzIp+PvBs3rl/t758xY8bp06fTw5eZvJqamsV/XtT52VaJHZPHMS9dzLtx4/rojRstLS0/+tGPhoeH08CXgbzW1tapU6d+3nao5cgKJk+eRFY6ecnhwUQicU0su8nrQTFv9MaNGzeuv/nmm7fddtvdd9+dCr4M5D311FP7P9jR+mkNkweXLxVN3sjwUG9vb2Nj48DAwMjIcCryRkdvJJPJSZMm3XTTTV/+8pcD4UtH3vDw8H333Xeu42jL4RVMHpM3NJS4cOHCwoULp0yZUltbOzQ0eO3asOcKQ622ozLuVVVVff3rX4/FYmPGjPHDl46806dPT5069VzrfiaPr22HhhKJROKFF16YMmXK7Nmz77vvvs2bNw8ODl4bUZe3zrUtkjc6OrpmzZrbbrstJj/Tp0/3wJeOvIMHDz7++OOdJ7amJe+paVL1hDmv8K8ql3qORfJXleSwiHYvvPDCpEmTtm/f3tPT89prr02ePHn79u39/f3XryXxVxVK3nvvbhk3bpwiLxbzkubdp2DW1dVVVVW1H9+Qjrw37nVU3zltfwl/zzv03HdisXEv7q7HX7P597wi/Z43PJTo7e1Vi+z27duXL1/+6KOP7t+/f8mSJT//+c+3b98uLjiujajf8yh5u3a4yPOEvULJWzMlFovdO038e/vv3ynZL8krX/ifMSavNL8kJxKJxsbG3/zmN3v37l2yZMlDDz00a9asyZMnb9u2benSpXPnzk0kEsNDQxnJu/XWW2lcK5A8udROebpNRr4Jz7zi3MN4Z/oECLLTl8h7GPWP6ppl8h7Gsn8CkVjsoWfFPYzl/xyLxe6at0Tcw1j+v0X52WXdu355VywW+/53xL/iM2nj6RUvfN/ZicVif//cSnUHj2NekWLeyPDAwMBAf3//okWL7r333rfffru/v7+qqurHP/7xnj17+vv7E4lE4GrriXmei9zCyJPATXtjddvRp8XZ3vhpB46tbVfYjZ9+AO+e1f+7wG78owca4O7ZjhmCpIeeFXfP3pQIPvRsWvJ+eehU3aFnvyNxXNFzmmNeR+Jyie6ejciTvGXLlv3kJz/ZsGHD4GBiUPyiJ642pk6d+uGHHyYSietZrLaeU72CyFvzrzr2yNLtC95Ze+CZ22Ox2LQl+r7tgbnfjsVi05du7ADyPvqdrHlT3bd99t9FVJt5ME3Me3i+uG+7cpIY5ecLmLxS3rdVq+1jjz22bds2eTEr7mEk5Q97L7300pw5c7JcbcMjr26qiGR3PrJfZgzsnyOAm/DMn5g8eXkrk18ikTEwMpy4dOlSW1tbf3+/vHXh3D0bSQ6fO3eura2t1DFv35yxArU5C51clbppckmdfmDJj0Rkoqvt0vtkTbrV9q55r3e99x9yCa7qOrnt42f/h+s8zxvz3t34c77CKNFqey2ZSA4PDA4mRkYGPbkqyeTQ4OCg/DE54Pc8z3leWDHv5fl3CpymvYFZUq/8fry4wl3wztr2JRI10R5zrjCW/qPckzWprjA+27r+IUfqru9nIK9n96y/l7J8hZG40mVPllSaX1XCIo/z8zg/L2XGwOjojdHR0SLFPCaPyWPyZEY+/55XpN/zriVzyEnm1Zaz4b1/q1GabHgmj8lj8vgvgMQfAVXKXwBxzOOYxzGPYx7HPPgtN8RclYW/l78nC81Tnm57Z9qEKXP4720jdvfMwmvb2dNc9zDWMHlRzUnO/i+9S3GeJ+7b/utTrmcMODFvjsqPj8XuW3t8fce7MkUqFov929yO+hlOlt5D88RjBvgZA5F7xkCJyJPpAnjf1hvzDsz99rQl6w/M/fb0pc7TLUR5GT/d4uSV6D7dwix5f1ogUgfEZ8Lc1zqOvyZ3/3GteLTKn2X5n9apR6twzOOYRy86sJzhL4Bkfh7JVXFi3oFnbpdpoesOzP22JE890WfudJ2TPG/6+Bkf8Wp7/lT0nuhTipgnniVV94hz3kavbVV+Xiw2YbwgTyUky/hXjeW7freYz/OuMHkY5DyFDDGPn2LGTzFL8VwVzpLi5+fppztyxgBf2/K1rVhcC/rbM35mKD8zNNUTfTgnefe5s/y0WvEsZV5tebXl1ZZXW35Cd9hP6C7V73n8bHjxwwo/G34km+eq8F898lsJivhWAo55nJPMOcmck8w5yU4CiesnPNcO3z3ra/+I3wFUyDuAeLXl1ZZXW15tebXl1ZbfuFfsN+7xasurLa+2vNryasurLa+2vNrKFxPwXwDxXwB5fslTu5wNf6FDvKqe3+lt5i+9W5uPtTR96tuOtjQdbW062trs2Y61Ngdux1ub5XbmeKt3a2g7k2prbDsbuJ1oO+vd2s9+JrYW/3ayvSVwO9XeGrB1tJ5OsTV1tAVuzR1tKbb25o72M7h1tp8h29nOdt/WcbazoyXF1trZ4WxdHa3O1tna1dmWYmvv6vRtXe1dXR1q6+7q8G2d3V1k6+7sdrau7u7Arbu7u7sHt57uHmfrUZ/3drxD33uWc8ZA75ldXSfreGML5GqBvXv3FkSefOPe8pbDvLEFcrPAhx9+yOTlZjL+bxaKBZg8xs6MBZg8M3YPJWyUtRImj8kzYwEmz4zdyzpchTJ5e8h7Ub0qTd3Ee2Tx8pbDTz4Si8mCH44nH4nds9p7Qf3i/DvHzq/1C3ONjRawirzsuWHybIQpp1hYIvKaPl5av2F+2pnlFLGYPCbv+Ia0PAkDNR9a9tN/ufuWW25JK+knj+BV+zA8ik8tsqRp8T1Ols2DD8NqqxfuFIt12bstrSXL4+iKHvMQuyzIg0StmFp2Aa/ahyfc+fA+dVa3+J7Yg0/KU0CJoCAS1miBoCw7MuXhgAgwlN8hFJc8il0W5AFDzqUDkIdRTZEpKCRNAkQFGURNGSAnPP0i1DOCNlqgiOR5sCuIPI2XMqJD3r6nx8oQ6CZPgiiaUl4a2+iJSvt/UkTy6jfMv4V8vvfdsWmNCxHLCWDqVxXfkuoJhyK8wc8ruNqiBl520RT2FYpIXlrO/FEnNXmHl7eQBVcuo7DaHl6uYptYh/EKQwsDlPbZPUfj+M1V9jX2kFf2pmSYcrIAk8fEm7EAk2fG7jmFh0gKM3lMnhkLMHlm7B7JMJbTQTF5TJ4ZCzB5ZuyeU3iIpDCTx+SZsUCh5CX5wxbIywJMXl5m404FW8BG8jq7uqb/ceN/ie9a//b2gg+QFVhqAbvI6+/vn7d4/d/86v3/9czbzy3e+J9+yfBZyk3h07KIvNWb//Lf/+9735z9Ts2m2sbGE42NJ95Y/fZ//tUHazNHvqbqiZhVqgoTq5sKN06uGurjsVi8PtdeFSpvBXm7P9j3vadr/+uvdla9sUExh/9mDZ/0X3289J43MWYUYDVM3tGjx/7h2S1/86v3H3913adHjyJwWPjrJ4f/uWrzzY9nF0lMUGBiTCavqqpAG/y3x3fcNXfbgY8+RtSwcOx4Q/WqzX/3m3cfe2X9pOc3ZzWQiwKxUy2W4YnVTWQ5dpZDKSqWR/GBJVKLyRq9ixJJXSdEQIEcROz5NWFVNiNmdZTREDIc8/7h2S1/+2T9xm3vIHCqsH5r3YQ52/7P7zfu+/BAT0/PzxZsysrcxPWKCt/pXlP1RFUnmVGc1McFnEnZA8hxD0d7eVWSMaEo6EQxqh0Yp3XBI7rHj+KeYfJ+tmDTe7v2UPh27Nrz0wWb7njqLxu21jlPl8yfPOJVHZ1UEAJKhFOhLOMZIuO0qKiomAFBSgKpgyJ8KzHAltZC2T8iVR3psnnyenp6dry/+2+frF+27u3/eGnd3/3m3TfXb+3s7ETszpw5k2/MA/IwxmjKwPfCu7TsLKeip6+X4ARUIhWkMxThW8mkI09KSPz8inGEaBbMk/f/fzdG+P6wdMPZs2eRuY6Ojg1b62b8cf3aLdn9pOxyud4hxIjQJ+HRrR7yhJ9lY0AvUeWKiSCr4ACdLjHkF1pxAEoUbaT10S0bJu9PKze/tHyTgu9nCzYhcz09PfU7d8cXrntlxabW1rZs7e/yH93BtTYed64CPK1Ao7O2qsjm7yWhdMlAjQCS6MSucGrn5hsktZgvlmZ7zOUqZ5i8RCLxyopNLyzb2NnZieQd/PjQvMXrn1m84ejRY+VqV553JgsYJi+ZTCr4Xlq+6WcLNh1vaHhp+ab4wnUf7Ns/PDycafLcXsYWME8ewvezBZtmvLR+W92Oq1evlrFFeerZWcAK8hR8u/bsPX/+fHbTZqmyt4At5JW9IfkAcrRAoeTx2ViOBmdxxwLvvfdeQW9iudB9rK/zE97YArlaoFDy+O1TkfzDsBIcVKGrLZNXAidFcggmz8zf/EUSppwOislj8sxYgMkzY/ecwkMkhZk8Js+MBewhT7/Ewnm5QCkeMZvmBVdm/BHJ8BZ4UFaRB28loM/dLgJ/qx9M9To1pq10FigReTm+fcr/tO4wLcLkBQahEleWgjx8MUbaY6O0YVk8A36+eLOFDIfyFSsqLxNeKyUfEo8Pg8fXZmhJ9Xh4rWfCnfCHFfSNLoeXt3i76NUfxgqT/rSmqIiBik4eYpfDm1gW3xNzXjclzsOct/kIMmA5Fu8AUmUhAC9jgZO24LdVgZ7Dy0nMg7cb+LvwuzSKcJ5D/78VlzyKXRbkQTTCl6vgW6bUKzEwpMnXYHhejNGClRgClT5PbAskz99FhkB+hRVlJdxyEcnzYJcFeRjScLmBmJQreYRRaS+iJxV53i5iDvwKq3Bpo9qKSF7Bb58iL6ByzsMQTddqC5EJKl3rsoI4E3kBXYB+XnaLs+wWkTwKeBZlvKoAl4sDdhFD30EFZ/1CQF6CiJUVKtO9rUrMRK2tnlWYLLgCZb3Lr7CiHgmtbA95+R2SG83i/O/M4r9NfpOv6F5MXkW73+B/KiaPyTNjgXInz4zVDIaKyAzN5DG7ZizA5Jmxe2RCV94HwuQxeWYswOSZsXveoSIyHQsl78rF9v6LHbyxBXK1QKHk8Z/MswXys4CN5B0/fvyxxx4bO3bsvffe297ent+BcS/LLWAdeceOHbv99tvHjBkzduzYAwcOWG4+nl7eFrCOvFmzZins9u3bh0fV2tqKZS5EwwJ2kTc8PHzrrbeOGTNm8uTJfX19ysR79uy5//77M5lbPBUbPmmeOQwPKM6kjtuLbQFLyRszZsz999/f19e3c+fOb37zm+PHj89kCHj2f1K+ViAle0xeJkOWqt0u8gYHB++///4x8Jk0adI3vvGNMWPG/Pa3v81kEE2eQM/76gDszeShKQwXLCJvcHDw9ddf/93vfqeuMAC/MePHj29ubs5kJ42bLpGXlMGLTpA8sjo7AVI2wWsCdNDUglDnr8k0OW73W8AW8oaGhl5//fWXX3757Nmzc+bMmTRp0re+9a3vfve7s2fPbmrK5lW1Ggf9Bgp9uEgjkodttAm64ttT6HuAVA8Ud7+EBdVxIUsLWEEeYtfU1LRgwYKVK1fm/hBcQoSAEOITxDB4oSMhL00TvlOFiDsGJb3EBU3KZT1L+1eumHnyEonEn//855dffrmpqWn+/PkrVqzIHbukvK5ACgA9Hbp8KKVpEjA4xIEiwoefRdLIxewtYJi8RCKxaNEixG7NmjV5YecmD3iBb0WS63VnaZqk7YAvIYdAyxZ/TfbGZkliAcPkLV68+NVXX21qaqqqqlq7di2ZWK5FQQR8kBVcGv2vO0vTpGOemAQKBq3gOFKu02V5k+QNDg7+4he/OHLkyHPPPbd+/Xp2RkVZwCR5yWRyy5Ytv/71r7ds2VJRRueDTSaThsljH1SsBZi8inW94QNn8gw7oGKHZ/Iq1vWGD5zJM+yAih3eRvI4G74ScLSOPM6GrwTsbPxVpaBseHIjA1IGKsSP5XeYdsW8ArLhVS6e5q2+ujqb5Kry81hUZmwpeblnw8M9/qg4JvLHYRd5+WfDB4JHcvZIirwQrRb5BROrm2hZ/QWHyjpQsVMqhYwBHU71mh6vl6EWm0QL7kSencIO0CLyCsmGp4xpg9BaXRYoQY4JKWsBTM+T0CGETh+S2adG0tBTFXoWXAq0gC3kYVpyntnw2v3kMCkJukxFSRlim5NqJTgjrVimdc5QUKWHIHPgYgoLWEEeYpd/NnzgOkdR0GUARViElEkRbEWrnHKqcdS6yystmC7zt3nyQsqGlxmcsIiKU7a4ClpOlSBGL5dICGGLSIDZSCsyGiAmTxDFqSOqBQX8ndoChskLLxteHKKggiyWtGZiPA5/hBvEkzIQWXAlpSkktRiiFshjaqtzi/H8vPCy4c06U6/lZudRRqObjHnRyYb3Xe+WEQGmpmqSvEhkw6sVHpddU34sv3ENk1d+BuMZh2QBJi8kQ7KaHC3A5OVoMBYPyQJMXkiGZDU5WsBG8jgnOUcnlqW4deRxTnJZcpT7pK0jr6Cc5NyPn3uYsoBd5BWQkxx4FyGw0pSpeVyXBSwlL/ec5EDIAitdx887pixgF3n55ySTnGNiSiaPGMOyokXkFZKTLPNUIEcKc0lE5hJUWmZ3no4t5GFyaJ45yRjzaL6SQJDJsxRyK8hD7PLPSUbyaE4dVlpq/IqelnnyQspJdk7pRMjTiSN8nmcv3IbJCy8nGSCj6PFqay94pp8ZGl5OMpBHc+L5CoPJC7RAdHKSAw+PK9NawPBqy0/oTuudKDcaJi/KpuVjS2sBJi+tebixaBZg8opmWlac1gJMXlrzcGPRLGAjeZyTXDR3W6TYOvI4J9kiOoo5FevI45zkYrrbIt12kVdYTjK8C94xryt3wCKT81SkBSwlL6+cZPEYKZ0tgM8dY09baQG7yCs0J7meZoJyzLOSOJiUReSFkpNMnuqE5KmH7sgH6zkhUTY5qcvOU7ZFM2aR6h4khoLJ+DsUC9hCHiaHFpqTLBZZRRCSh4bCfBYJnYRKMqbkIb8KpdxPs0UtXAjFAlaQh9iFkJOscSHkOeENTwTdTRDXnFoi7AqEodiblYAFzJMXbk6yPC4VvQAvDIL6gdzQpDEV/TR5wCJYib/Dt4Bh8sLPSVYmEivmRJUXD4uoQktd/KYlT3TAM77wLc4alQUMk1eMnGRkD35jweUzHo9nQZ6DqLwiIVcdTEy4FjBJHuckh+vL8tJmkrxIPCe5vNxt0WwNk2eRJXgqpbUAk1dae/NoYAEmDyzB36W1AJNXWnvzaGABJg8swd+ltYCN5HE2fGkZMDOadeRxNrwZEEo+qnXkcTZ8yRkwM6Bd5BWQDW/GfDCquEEXQpqBuGXsfELQBpOz89tS8nLPhodMkxKameQdhDCqpE7zVl9d3VSw1nBnWPB0XArsIq+AbPhyJ68okBRFqYuf/HcsIq+QbHhMR5H5TcLg1WLhmljd5F/ApDugAwQZLSZr9K5eRHWdEAEFKpuFuFiLYdcsRiQKXM70a6Mp07ocMIR7hi6tNuzYQh6mJeebDU9jnrC5L8MOvSQ9oojDpNFUjtdPWkZR7TXSCYoCFBwZu2QeESentSfVMyh92qioLgcNgbmuLqW27FhBHmJXQDa8hzyIZe5kO1kLlAgXQFmGFnSy00JP9kGQ+o3UQRG+lRiAQWuh7BkRqql+nJ1LGygVlbpM++uyLrn0WrFjnryQsuGpm4jBMe5oykgr7QSPuXWWUsBQSQtOCMzKdUQRFOFbCQAYtJaWBTnO3whnGkBjBkrFELpM1eqyLlkBm2sShskLLxueQqQNThwq1qOUMQ9tIrsG9BJVACMI62FwcJcYUk8EURKUYIWYnx6hqTquzlGximpzKslowUPQWhzQkoJh8sLLhodzfuEUanB5AiTWzaBUeJREKSey4T72Av1SVb3ynpLyjIhd9S98nvkA/75f7gRJzgeAC9DmRErx98HxOLzjKGgIPNMAZZYwp6ZhkjzOhrcKhRJPxiR5nA1fYmdbNZxh8qyyBU+mlBZg8kppbR5LWyAE8kb4wxbI3QJ79uwZN24cXFGJ71Hyce2QelGsq6urqqrSDHOJLZCLBd59992CyGs/vqHl8HLe2AK5WqDQ1ZbJy9XiLK8swORxwDZjASbPjN058jF5TJ4ZCzB5ZuzOMc8e8l6cf2cs9uCTHpesfjAWu/PhfZkvn598JHbP6sxiHs5enH/n2Pm1nkreLYUFLCMv5uag9uEJd46dkJq81Q/GHlmszMTklQIXT1woZLdE5DV9vLR+w/y0ExXh55EHx054+kUU2/f02EeefpjJQ4NEqVAK8poPLfvpv9x9yy23pDWcWviefERHOBnGFt+jV9vahyc4d1vEwioWYvURXUBY1kAgXN6iu2B0XN6y+B6n44MPw2or13pP35zX7jKLOmndUfRjKTp5iF125AmeHG4W3yPiH5InVl444Vt8jzoj1MKCPDhNpF308v3kI6osWIQ1XSAoy6DQrDMqavTikkexy5I8EaXEdQac+yNGGKh0nCOYqpjnRCk453PztO9puZS7KmEUGRrpQl9REBg52CKS58EuW/IUc4sVf3JlVKHORYyzFrhjHl7bpiNv39NjyRU0kCeRFU0xiLi81BbZAkUkr37D/FvI53vfHZv2/5aGwEUAxjy6SoJRMpDn6kJXW2AUV1tQKBZ33y87aadd9POhqI5eRPJyNJkmr+Uwuc5A8g6TK4NYzFkZ1RKMVxgOQBDz3F3wskORLRZtvMLQSzlAiSxyoTgWsIc8Dh6VZQEmr7L8neNCVETjMHlFNK49brZwJkwek2fGAkyeGbtbGIRKPCUmj8kzYwEmz4zdSxxgLByOyWPyzFigUPL6Ov56vu0gb2yBXC1QKHm5/G0vy7IFtAWsI++jjw5+9NFBPUEuRdQCFpHX0NDwyvOrqmbWVM2seeX5VQ0NDRG1OR+WsIAV5LW1tS15dfW8aWtWvL7u6NGjx44df2v5hqpH11T/oebMmTPsqEhawDx561Zvnjd17ZLX1nzy108aG0/g9slfP1n62pp5U9eue2tz1qYnTw7Oug8LGrGAefL+9HzNvIfWLfrDW7t37UHsGhtP7N61Z9Ef3pr30LpXn1+VrWmaqieSBxtn26tgOfqQ4oKVVYoC8+QtfKbm5MlTK95YN2/62lfmrXpne/072+tfebZm3vS1K95Yd/LkqYXP1GTpDQFePT51O8tOIYgxeXkY0QryeuSnvb19y8Ztv5/11vMzV69ZubG1tU3VZ02eAk+/+MIxh37iOrzRIl0NvPZCv2rC99oJeF67Ugd79J0CeTii4rpYRJ7ibMvGbVs2blPl3MjTkUeXJIaeh/LjiyXA2a6TQ2hNSR68bAAEyZuEQCF/Z2GB6JDnwc2Jb7RWmSNTjYNcSvIgcJJV3a8yC8tXukhkyNOLnvNX3JIQEc4QFelrfw1BSEgweaX5P2EFec1Nzbi8elbb5qbmrM7zvGEH1kLXSorouddflwx0FDw6YqSdDqPLulQap0ViFPPkbd6w7dWqt9as2tTQ0NDT04PkNTY0rlm16U/P12zesC2jqf2+1+DoaAjRL12NDpECOPkp65c8ZTSdKQHz5CWTyXPnztVurXv1+ZUrl6xbtVRsK5ese/X5lbVb686dO2fKNDxuUS1gBXnqCAcGBj7Ys3fxH99a9ELNe/U7+/v7i3rkrMIuyGIAABm3SURBVNysBSwiz6whePQSW4DJK7HBeTjHAkweo2DGAkyeGbvzqEweM2DGAtaRx9nwZkAo+agWkcfZ8CX3vskBrSAvvGx4cqMrwKo0CwCbsRLvWYgbF3C7A8W4ELIFzJMXZjZ8hpxkhIwaESuxQFu5XCwLmCcvxGz4TDnJgWxhJRaKZWvWSy1gnrzwsuFT5CRjfkC8unoiZKkEVHrJE6uvs+hi+oHMTNB96x1T6oVadXCJwcLtFRL5WDSji7qlAspWkKdSpArNhtf5KrokvUtpk2Xhcl8lAQES2x0WiToJncZRkkmJdUSJmBtaTVRAL91YCSWLyFP8YZYUZuxllZ/n/usLzYou6aRPdyooIoAF4ncVliBquQeBHFIMgU5OVXWTawCYgVQFvEtNTsCTX7qBjB7pYmTI8/jfuToV7tbcOGwFVmIystvdJHqJBsBICjnqXHWqN62iZSeuihm5qt1jVsZeVMjzOhIWOUqZoAhXW+ARKyGEEb/70dLSkh3U5glZdDa0LHWrCjExTy8ycgUUrSCv8Gx4n3tFTFGOFS5WH3KFEVSp62KSUEGZ4lNTIsapBoUAr2vplIPS6UBZqHPm4VyY6JpKZNA8eaFkw5cqRgBGpRovwuOYJ6+ssuGZvND+L1hBnjqacsiGZ/KiSF5ox8SKysECFsW8cjAXzzE0CzB5oZmSFeVkASYvJ3OxcGgWsI48zkkOzbd2K7KIPM5JthuVkGdnBXnh5SSHbB1WVzwLmCcvzJxkeUc+9d3QoGwUfbs2sLV4lq90zebJCzEnWVCU7gndgWxhJRYqnYnSHL958sLLSZbgpXtCdyBbWImF0li+0kexgrxwcpId8Hypb5gSQnJVRCqLkziCKfJInrxFBgI6IUXnskCdrsEkQNo3Xi+mJIfBMwCogDSYyuXPIvIKzEkmuZbk7qrwNLhdwCTLgZWCEiUpoVN0Ya6VzroCVqgS3ar7SsaUQlEU+nAEb44p6Kyk7+iQR3ALhlB7nopqHJAL2gxl+NZsuGugM6n1FyGOOuEW/kdonZVUigx5Hq8Wkg1PkAGGIWoRNKhUINREwCmSGqKoQotWkFd4TjIQgl6EZZIiI+DE1RbO1bBSBz8KCJSFHneMctXAcHQe0FUvra4uONUKLZgnL5ScZOJlx5HIgnC392JCUOarhAWT0kPLOqpSakGNznAnrf6iVuIBueL4M09eWeUkVxwfxTtgK8hTh1cOOcnFc0TFabaIvIqzfWUfMJNX2f43d/RMnjnbV/bITF5l+9/c0TN55mxf2SNbRx5nw1cIkBaRx9nwFcKcOkwryAsvGz79/Sm8S0FdrCr1TQ3npoSZWwziFgfc+KCTjGDZPHlhZsMXlJMsveu/DVd8p5sYs/hHlWkE8+SFmA1f2BO6mbxMsITabp688LLhC3xCt588EYzk0/ImVjeR5dhZDmWoggwAWCK1mKzRu3oR1XVCBBSoNBoS/rQYdg0cMVQcSqjMCvLCyYbXXtMlmZQC2U3CyZgl5atURiddFRUghz7Bk0XJjCIOE2Nc3bELeUSzIM2rknSCosAOxbBL0Ih0kLIqW0Regdnw4DRhfl3WJeL+wErlNleTa4dEJxWEaCuUZaBCZJypwDWLE+IUrIQS6EwmTqpSzNstQbSVSzEy5OlVi2bMCRK0p51wFVjpOMzlULKDcUdjTVoJ6goU5/1Vvl7uof1jgk74VhIQZmktLZcLbK55RoU8ryPA59TVrtUWeMRKZRaXHr1D1IgOsrNu1TSibWVjQC9R5YqJJNCRoksMjsXFNx0dRy2nghXkFZ4N7/cDuks4UX3IXz0GVgq/uRTRHYyp+KfknlagEQaTScr+XnIIlwzUCCCJTuyqf+EjrVSynHjTczVPXijZ8PqAuFQmFjBPHmfDlwkqIU/TCvLUMXE2fMi+tVudReTZbSieXcgWYPJCNiiry9ICTF6WhmKxkC3A5IVsUFaXpQWsI49zkrP0XLmLWUQe5ySXO0w5zd8K8sLLSc7p2FnYpAXMkxdyTrJzY8p/a7WoVnbdZy3qSCmUQ1JBimZ4hBHcrU4lVsJ68+SFlZMsb8Vqy9ZXu2+DFtWmGbLwizU2uY+bgTy8i12sqeSu1zx5IeUkEy9oKwRW6uawSpmy8MMax6uHHF5m8vR/Sq8aM/tWkBdCTjJxAjGkrIWkDzC9zlOB1L1AMUghEal2+BRv+XBQT6aJWMmkbs8c9Dj+kf01MBeKkC4HzBAOS+VZo2haSTWsnhgMSkxWsqJF5BWSk4yGdxtOekeZO2C9wU5BYsI9kEgn2mUZe9B8Kg2cLklsobszJ98M6BAi68k3hB4uaIZyDIKwGi6TZOCgbquVZi8i5KVIV/OgAG6S3lGRS1YFidE6EdWkX0lH0R3qQC+Zhau7dGWmGmcMGEr00WXaWZd1SYuSusDp0HY6QmlwI6NEhTzxXxkBwOOjZoYyBBcStqBJ9HPKbn2AABV0BvHAGPhkcCHqVig7u7UxeaPkEyNlb7Gurq6qqsqxfwFfC5+pKTwnWSGDy6NwdNxzbetHSkCTMuZRUoQgLIVkDHHQbnr0Iiu6q+UPTJOhBv9DYEHC6uigw+iyLmUf81zT0GPBLEv3bT7mhZiTLKzqfJTHiGs0Ixil0ua1qyjlLMnkCgN7SxjpAMpp2plaEoJxuhodsfEoJsbjzrth9OTdsCuF4lghKqeQdM1TT0MPWjriYCTz5JVDTrLLcWA6/i7IAlaQp47A2pxk1wJVkLW5s7aAReTpSVlRImuSyUXJClsUYxJMXjGsyjozW4DJy2wjliiGBZi8YliVdWa2AJOX2UYsUQwLWEceZ8MXw80W6rSIPM6Gt5CP4k3JCvLCyIbHX/7hTr7XZuJXEriZ4G0L2jf+Kx7elgiaHT4sLadjSqHJSLV58kLKhid+Eszkwpg0vPc2BacZF5lH8+SFlA1PyNM3MXMwnoc8TjPOwXZ5iZonL6Rs+EDyBE7wiG1ESxbgDoWKjbDnpKTIbAHZgp2UcfWSDjE1XQ0E3sCpqVv7MHDQNLBb2gmrnnoaMGheNJSykxXkhZANT+OcO10EcpUQIultdLWvWVgfZUlJZ0Bp/+iRnDpBAGgUfWUZEfIme8KJJwi6RtZHlGnCgYPqSVpasoi8QrLhaU4T+NPtR82QxioNYhDTdDdSAl9STarOXeMgl5K89INgN6pUl4NKYhLYDWZp6XeUyMNgg7bW3iGQBVZSrmAJhFw/tYCJyIKoyBH8NVSLhoCyoMsZp4GimSRpO5OHzs9YWPhMjYp2Bce8kMhzO1Ivsq5FDdFzD+qSwUUUCyIgwWpMh9FlXdLBi9QRtHUtUapnm9HupgWsiHlhZMNjhKAW1d7JGPOET+VPgdVxT2gTLQ5fOhpC9EtXo/UINuQn2mnG1PQZy+bJCzEbPuPRsoA9FjBPXjlkw9vjr+jMxArylDmtzYaPjrdtOhKLyLPJLDyXoluAySu6iXmAQAsweYFm4cqiW4DJK7qJeYBAC1hHHuckB/opepUWkcc5ydHDK80RWUFeGDnJaY6Rm2y0gHnywstJxjv87nupjtnFfS6455XGE3ijK722NBpCacpytmnG8t5OJPuFK08zbrZN5skLPydZwJMFY24T0Vu8osW775Yuzl6oYxLS5Gy9+0GHEOoEggYgdebJK2ZOMjnQTEWv0b37mfqH0R7qmF7SvPtBEw51AkEDkDoryAs5J9mdX5RXNrwn5gmPgB6yHDuBVfoLklYg2GoxWaN3dTjWdUIEFKiMfMKAFsOuWY7oOusg5KFyrTpe75mAK9cWDkp0lHYQpyJQKVO/cIewlb5oEXmh5ee5s5rA/Ghu6WJlKS3pW11RXNhPdAE9aE90ZZBCV3fsorNFpU6vStIJioINFMPpZjOipsp3xgrK4RvnpytSj+vMxiWKM0RNmQtRIg8tjP8BtXlIEAuszEge6qTRSf2/D1Io/e5yiKRFTVHoop3ATaQOivCtRAB2Wgtl74ggC8rJfqouZFIgktW4ruOE8TJ9R4k8vwGo/bCMBdd1BK0VRnPtkx2MO1qEtLq7qbDjcAazU9KiicCs3EQUQRG+lQDQQ2tpWS58zjoIskAA2U/VhczeJYKnL65a9Yeh8DIQGCbrbyvIsyEn2WXU1OQRYkQQk/DQrrQsnSArAnqJKoARvEU6Q9ElhtRDq+hIy3pE/99jpCKP6tC6Mo8rRxBnfb7/QHA46b/NkxdSTjIxrD5ibUniocBK2U4fjEGlXN7FVTPtA75RyolsuI+9YER6sq6kBJBkeOyqT+pJK0pqMYWC1yBkH7p7u8CU1P8I3YrRGTo6Fnbhqa2eXck8eZyTnJ2nLJQiMOc+OyvIU9PmnOTc3We0By7+ec3CIvLymj93MmIBsc7qxT+vKTB5eZmNOxVsASavYBOygrwswOTlZTbuVLAFrCOPc5IL9ml5KLCIPM5JLg9kQpqlFeRxTnJI3iwnNebJK0JOMv7mXjJPqF8ZnJSFPG8nlWyydgxknjxLcpILc0dBv+YXNnS59jZPniU5yYU5kMnL2X5WkBdyTjLFQC+Dag2U97yde+HxeieriKR9anm1ZIt9XD21Yi2W8vY8dMN7THRo8vu/V5VLDIb2CuHEiaKcfW+2g0XkFZyTDJmhmHykScFUFQmd9Kd0phIVRVEnvrEzEKPzM0AdfAvPOa2aDKDYEdK9hShyIsrOiHRAUUXEYAowCqASMAFoKp/vKJGnfIjugpwfAFJC5SZBIqj5IY0kbx1qMQdSsoFapVrKAjhf0QhDIKSqWYOpFfn+AgOJk6oQUQWn7qcbYOhy+I4eecTFwAxxBKnyF0kNIc/xv27UJVQcRJ4CJCN5WkBpo9pp2VlghbirGudQZgUryAs7J1mECOEh8e0JCMRp/qJLnsROEe3icdTkElP+9pOngxqgJUIl6ADlAarItPyIqcaAXmWGXTKZNE9eUXKS4TxKxR21MEmvE78GFslKCsSo8IfQSB8TMalWsICfidVNOD6hX4zn/5PBdDNE8vRwMCld455Y+RBonryKyUkmpJcPH8WbqRXkqcOLek4yk+fC2CLyXPOK4A6T53Iqk+cyB++UzAJMXslMzQO5LMDkuczBOyWzAJNXMlPzQC4LWEceZ8O7/BPdHYvI42z46GIWcGRWkMfZ8AGeiXqVefKikg0Pt2SjTkxYx2eePM6GD8uX5aXHPHmcDV9exIQ1WyvIi1A2vLxFBokkkFii8rVULgvUkewWqKJ902fqQ4+wKDChxyLyyjwbXp3nSegUGJCDJzM53WeBrgQ7lNN9JZaqiygKfTQDMBJ3gKNEHvoe3Ayxx8mcE9XEaf4iqSE5yVCbVTY8CIsoAmX41pHFXQNQkVp/MeBYtL5yLEWPPO1xdD1xjN+lotGpJY2EPKdVN+oSKgZ4QJNscOQgaqEwjufUQGei118kNURRGRetIC9C2fAUECi71lbJiquGrrZwAgdd9f8KV5cyBg6nbp68qGTD41oP9ND4p9dKaNU18jROOMSPm7uWdIHzCfRj+RXMk1cx2fDlB0dRZ2wFeeoIo54NX1Q/lp9yi8grP+PxjAuwAJNXgPG4awEWYPIKMB53LcACTF4BxuOuBVjAOvI4J7kAb5ZTV4vI45zkcgKn4LlaQR7nJBfsx/JTYJ68kHKS5S0AkhoQhivITQWtTtzGgg/ckNCt7hKRzSTq7lgBe+bJCycnWfgYnVtfXd0Uhu9Skefcu3KN6RtPUodTSqaaU+AYPmURrDBPXjg5yUVxYKBSyCyh2SwBYAT2LUAuoGt5V1lBXhg5yeJ2uvc+ul7sVOzR+xAfBR/ymXayq25X8pIeuE8P4UuTByXRDVrl8/Li9fTuPwFED6A6gG6Yum4HfSghpgnHp8VwXDwQcSIAnWEyZAb2FC0ir7CcZOf5itruwIWwtTcAYRvlFbOV0DvS7cqNupG4HV2s9TuacQDU5S7odl9XKahqxVBAG86UVooDUwLYTA9Wj+Ie3Yq9KJGnDCp8IGiR2MClAAQVUimJ0n730ekBFiWJOwUECKYsYCOKe7zsnQAZljSJaasnjyr1QgmodmsOqgUJaPNMwZLd6JEH/+nB/trQGCBARH+rv9HRbladqAosU39q9FSqPCbMB69zARNwk+eegNYupgPj4kTkHANrvZPRJrCoZAV5IeQk18fRa47DxBcsVeAkWB5FeJHyxI0+ecolKYOvneUdhhXerq6eCLuyAxm/qTpeXY8hUgZkJapn4J+AcyRy9mLK8nBcYsiyViOkfZOxiDiYinnywstJhqUVeSPrl6zD/Xg87iNPra6ODi8VbvJgIEKWCpo4sjKvgMT5qBb/BBShAScDqoPWQK8wUI2+mHCTJ0OuZzLgcVu+zZMXlZxkEguL4lwPW+nHKPZk0o+eVasV5KmZlndOMq57WZk9ZyHXGpuxd5Enk3H8bAQsIi+b6Vopo5ZEfYYX3iTJsgqnqJmUF28ymUbOsZ3Jy9FgLB6SBZi8kAzJanK0AJOXo8FYPCQLMHkhGZLV5GgB68jjbPgcPViu4haRx9nw5QpRXvO2gjzOhs/Ld+XdyTx5Ec2G1/e95P2zYvzax+QVZoGIZsO77l9JDFPeR83pvlhhxraot/mYF9FseBd5nrwWj/+ZPJVWMUo+MVL2Fuvq6qqqqjxGzGN34TM1EcyGx3Q6tIiDIlmF5Qqsb5D5slPqsW8UC1bEPEVelLLhdSInQhMQBJ31V8c8KqNrUUWkClEiTzlGBBERTXQwkbFceZlUQsSBc/8AT9MqLBM6RPxS3aFVN+qSwwtWeOfgTkt28vnInCPFmz6Y6JEHSZwAgz5WkjsEjfCtEjsBQuiiW0EpyUoXQho9XwI6guYocwYPmIObPO8cYC6R+7aCvChmw7vIE2FOBl2NapYJ8ZEDDg/IPHkRzYYnVxL6LzFpxj1m5MOJge98wDkNRF9Fq2CePM6GjxZR2R6NFeSpyXI2fLZOi4ScReSVrT3VwloxlwYh+YnJC8mQrCZHCzB5ORqMxUOyAJMXkiFZTY4WsI48zknO0YPlKm4ReZyTXK4Q5TVvK8jjnOS8fFfencyTF9GcZLgzIW79R/tmRJ7/AcyTF82cZHKDNpny6dx5+iwa3cyTF82cZJrmEg1Swj4KK8iLYk4ypqeAx2jyii5LQp2MvXi9TLuqkPXZIvKilZPsZO/pPBVNG01YltDJG2/yHpw6I3Qt1UBu1L6jRJ7yjfClcKUTSCDH15eDJN1NFkVSBCfTKiwTgjQh0EoaiRI5H9qky9DR/TxwUgtqIvcdPfIgfdjvvYB8YC2kKdI+1q2gNPucZK3FyTnWtHliHqQakNFIkeiJVtEK8iKYk+x/YrgA0Pl5RVDuFAljwcVo4UaOxjx50c9JdiDDy4fYxHgc3ucTjBupJb6KVtE8eZyTHC2isj0aK8hTk+Wc5GydFgk5i8grW3uK0zb9ZoqyPYwST5zJK7HBeTjHAkweo2DGAkyeGbvzqEweM2DGAtaRx9nwZkAo+agWkcfZ8CX3vskBrSCPs+FNImBobPPkFS0bPqRbUDrnBe6CZesqyJpJJ5+NTLr+5dtmnryiZcOHQZ4rg6W+urrJnc0U4PdsRs1GJkB1tKrMk1e0bPgw/BukI6hOQ5G+VcllI6M1RrRkBXnFyYaX/oW1EpLg1HM+nXRRVak5IBFOPQNU5ZfSVRb0qT8oU/fNpDZINHVUiz6oWIvF60nGqkuGTkzNy9UrevhZRF7I2fDKxQiXwkd4E0FyEuYwZVMUJk6UPbDOl9ROckQJDVoecdOCpEp1IRVY1Nl7jlpsIcNEqRgl8tCt6rHZ1HVQhm8l6vCiv+L19XEJpvNFPK0vBVw6dAz0PKubnBDK4IW8kwZSdCmVw/p6kclEoRg98jDWUGdCGb6V6yBSqW+VRiyZ84MXCAmJU6gYCzgPHAsTWvwyAjMVnt1QSfwCW9xyZbhnBXlFyYbXp1mEGuFJjD4aHHFWF4/DyizWXHkVK+BBHhAO5AZrJGSpYx5iAT3hO9XEsIMsEGl3Q3nvmSevaNnw1GOk7FsfhQMJRIJYAI+e9utKpUHIoK7Ax23DoCiFwculAdj2iHl2yxuzgNmbJy8q2fABxuWqNBawgjw1v/LOhk9jY24KsoBF5AVNj+siawEmL7KutfzA8idv586dc+fOTSaTI/xhC+RugT179owbNw4ePiK+6XtsXTu0YXR09MiRI7NmzbL8PxZPz1oL1NbW5kleX1/fpEmTrD0wnpjlFli0aNEtt9yST8wbHR194IEH2tvbLT9Cnp6dFpg1a9ZXvvKVPMmrqalZtGiRnQfGs7LZAs3NzRMnir+Px88Xv/hFejqX7jxvdHR0eHh45syZJ06csPkgeW4WWmDGjBlf+tKXELtYLDZmzJgcyBsdHT19+vSMGTOuXr1q4eHxlOy0wIoVK8aOHUuxi8VikydPzo280dHRVatWzZ0798KFC3YeJ8/KKgvU1tb+8Ic//MIXvuAhj2I3OjqaYbVF6bq6uilTpuzfv9+qg+TJWGWBnp6exx9//I477rjppps82N1xxx3IkipkS97o6GhfX98TTzwxderUJUuWHOIPW4BYoLa2dvbs2XffffdXv/pVD3OxWMxzbZEzearD6dOnly1b9gP+sAWIBcaNG/e1r33Nv8IqCj3RLk/yUMvNN9/sp5tr2ALUAjfffDMC4ynksNp6eo6Ojk6ZMoUOw2W2ALWAHxhaUxB5VBGX2QI5WYDJy8lcLByaBZi80EzJinKyAJOXk7lYODQLMHmhmZIV5WQBJi8nc7FwaBb4f8S8ja/GYUWqAAAAAElFTkSuQmCC;" vertex="1" parent="1">
          <mxGeometry x="-820" y="680" width="211" height="507" as="geometry" />
        </mxCell>
        <mxCell id="pZx_xOZxBOp0TPrqWiV3-8" value="" style="shape=image;verticalLabelPosition=bottom;labelBackgroundColor=default;verticalAlign=top;aspect=fixed;imageAspect=0;image=data:image/png,iVBORw0KGgoAAAANSUhEUgAAALsAAADZCAIAAAD3ztZsAAAYcklEQVR4Ae2deXAU1b7HuyzL8k+r/Msqq8w/aqrggqBc/wglFpoU9z5I1Bt90VtF5QFBtgsvAeGWhYpRGPN8whMXsuCwhWDYg4EEB2ISA4lBJWSZbJNlZrISsjHJTGayzKvT3ef0mZ7JZLZO9/T8pk4lPd2nT/f5/T7zO7+e8+0exgkvsIA/FmD8qQx1wQJOIAYg8M8CQIx/9oLaQAww4J8FgBj/7AW1gRhgwD8LADH+2QtqAzHAgH8WCJCY3t7eGniFuQUaGhr8g4Wt7R8xRqMxIyMjPj7+vffeS4VXmFtg69atK1euTEtLKykp8R0dP4jJy8tLSUm58vOV2u7a6t7qax3XrnVeK+osKu4sLu4svt55nSs/G3/WGXU6o+6G6QZXbppulphLSswlv5h/IaXUXFpmLiszl5Wby8u7+PJr968V3RUV3RW3um/d6kHlds/t2z23K3sqq3qqUOmt+q33t996f6vuq77Td4cv/Xd+7//9j/4//uj/48/+P7ly9/7du/fv1tyvqblfc2/gHldqB2prB2rrHtTVPairf1DPlYYHDfoHev0DfeNgI1eahpqah5qbh5pbhlpahlFpHW5tHW41DBsMw4a24ba2EVTaR9rbR9s7Rjs6Rjs6Rzs7H6JifGg0PjSaHppMD03mh2azBZUuS1eXpavb0t1t6e4Z6+FK71hv33hf33hf/3g/V+6P3x8YHxiwDjywPkDF9mDQNjhoGxyyDQ1NDA1PDHNlZGJkZGJkdGJ01D760P4QFcdDi8NicVjGHGNjk2Pjk+NcsU5abZM226RtYnIClakJ+5TdMeVwTDkmpycnpyYdkw69Xp+enr5nz57BwUFfuPGJmN7e3m3btmVlZd3punNcf1zboNU2aI81HDumP3Zcf/yE/sSJxhMnG0+eajx1qvFUblPu6abTp5tO5zXnnWk+c6b5zI/NP+a35Oe35J9tOXu25ey5lnPnWs6dbz1/ofXChdYLF1svXjRcvGS4dMlw6XLb5YK2goK2gittV660X/mp/afC9sLCjsKrHVcRoB0UoMbrPxt/5uk0ITpvmm7eNAtolnaVlnaVlnWVlXWVlXeXl3eXCzhiFit7Kit7K90pdOHv/p88eQM8eQi7Bwg7BNxgfcNgQ8Ngg35Qrx/SNw41Ng01NQ03NQ83Nw83I9RGWltHWg0jBsOIgeeMgozgRcBCVI3xVPWOU0hZ++9b7w9YBwZsAw9sGKaJQZ4k+/CIfWTEPjJqHx11jAoAYXp4dKZsHDSIm2kWmunJqempqZmpO3fuJCcnV1dXzwmNT8Rs27bt1h+3CtoKfqj/4YeGH4AY9REzPTNtsVi2bt3a2trqHZq5icnLy8vKybrQeuFo/VEg5t7APVXGmOmZ6emZ6c7OzjVr1tjtdi/QzEGM0WhMSUmp6qrKqc8BYoRkKAxHJavdarWitMY+ZXcflThipmemT5w4sXDhwlWrVs0GzRzEfPTRR7oKnbZeC8TUhHUeY7f29/fr9frx8fGJSTb/dc1jOGJmnDMOhyMxMfHRRx994oknPELjjRi73R4fH3+3525OXQ4QE8bETIwPDQ198803ycnJV69etU3Y7JPizJcQMzMzo9FonnrqKYZhoqKi3KHxRkxra2tKSkqZuQyIQVfpYRpjJsatVuvBgweTk5P37t0bHx9/+fJlmw1Bgy6w8bUSIcbpdObn5y9cuJBhX5s2bRJB442Y6urq3bt3n285Pwsxe/7GMEzMuoP6g+uWc+1Tf5enHJbr6rpq1zKGYVZ8kB/xV9fjdhRdDh48mJiYWFRU1NfXd+TIkaSkpKKiIovFwn0rw11d08Rc1l1etgyZkHv5QUxxcbFGo8lrypuLGP77mEOfL2IYZtHnh+b/+5jc/1nGMMt2VrHfx3DEbDoU4d/HjE2M9ff3c4NRUVHRyZMnt2zZcvv2ba1Wu2HDhqKiIqvV6phyuBNz6eYlmhhRmPEWY8KHmNy0FYxADPvlMnyDZ7Va9Xr9hx9+WFFRodVq161bl5qampSUVFhYeOzYsfT0dHTpNGGbk5jo6Gg6zEhJTEnKYoZhli9m/77/bcvHa3CgY5jFm0vPXyjdvARVWIL+otcbn6PvfI9ue4V/z7zyL2275i38jmFe3HGLnZS49d8v4pVv53O48O+XfXmmhI4xZ9/FFRlm02E0BfHbnpcZhnn1ZfQXvf75vdvMgzq+831ofzg+Pm6xWLKyslavXn3lyhWLxaLRaN5+++3y8nKLxWK1Wj3mMaIYI7pokp4YZvXHolmC0k2IoQ2fYmK2ZBouZh9A2CzR5OxPQW5887TbLEHFDkTJxoxiDpcVqbnCLIFrjCHEVH3wV4ZhNv0fmiU4x6Kz6TAm5t8Xe25f+gph8/JXl0RzVeogZsw+NjQ0dPz48XfffffChQtWmxUVNgtOSUmprKxExEzxswR0HiMihmFcIHF5Qwcfp9MZ7KjExZj1H1HzSvuEMLN88xEuxmxIR/NKuW8gUlI+P6pZyn70GSZlP55X0vyDX8UwK3ZkZCByEvPpeSXPxOR/iYB59yw3r/Q1QubVPee5GLP5WzTBef6fqOHN36uSGG5U2rVrV2FhodVmtTlstimbzW7r7+//+uuv9+3b5+OoJBsx3+5HkYVZv+9cy754NBh5JgbNRJZvw9S8tZ0DKEVzreMLxA0Q4/tMpN0yMjJiMpnQAMRNYrMzkROOiYGBAZPJ5GPmKxsxH69nGGbxptKz57hRyQsxaO6ay2aWLkU5zdLtFVevcaPSih0nfkxE5LmMSrqv3qcy39lHpb/+73l+VIqAGIPED/Yxq806PjlOE2Ofsk/YJ6w2lMT4ksfIRkx+6ftskCG5sOcYw+Ux3Cj0Vt5Phb9u5+PNKy+i0WjFjhOdxcUcNGylt/N1OpPuxu007gsEXzPfCCHGZ7XD/OQxoI9Rjz4GiPkFvo9BoxLEGEEkCho82+Bg6DR4EGMgxrCyX4gxEGMk0vlCjIEYAzEG7iWQ8l4CiDEQY5QYY/b8Lea/vgrifqUj+9Hs4xu5cL+SSfb7leYnxnghZu9/zK3BO7J5eXw63OHG3kAZYcTcWLdw3br1rHBz0eeHcpsOpfAizkUbS858hKaT0IzS+6X5Z0s3LV6/Jp5hFu8/8ukGbv2SLaXp7LQ10ccUkOlrNEvQXqhh9Q9IHFMB90RKdU/k/MaYG+sWMgvX3zx5qvHDvzN//xDdRYtjzMnVi/d/w6odPl6z/mNEDLNmH38XrTjGZB9Y8ubpywWn32RS9gt30ea9tfQLLXsX7Rf/SPkCrq7D+uoaj0ooxvybve/60PrlLsR8wykcuGiy/P3vUYzZh++7JsRkbsGiuyWanKOapW+eFu671hK5DMMwr+w4Th4MAN/5huF3vnMTc0aIMeyd+p6Iydy/5I1cdKd+9oElSzQ5s8cYuFNfwjv1531UEseY03vXodsKqDyGWbz/WzaPcYsxnPqOYZa8whLTVkAED655DPPiF8dhVArrUQnUDqB2cBX6zqXzBWKAGCCGfe6VOu4lAH0MZL5hn/nCqASjEoxKMCo5ndLd4QYxBmIMxBiIMRBj4Oms7ne4zfYcvBnnjBOIAWKAGPYR5TATGYYzkZD5QuYLmS9kvpDHQB4DeQzkMaH/JYv50cdAHgN5DOQxkMdAHgN5DOQxkMdAHgO/4YZ/HFCu33ALZeZb2157t+0uXWraavjSXlODy732e6JS214rlI7a2o7auo4691LfUe9eGjoaGjpdir5TLyqNnY18MTY24tJkbHIvzcZml2JqbjY1t5haRKXV1CoqBpPBYBaXNnObe2k3t7d3iUtHV4d76ezqFEp3Z2d3p7HbKCqmbpO49JjMPWb30tXTJS69Xd293aLS09sjKr30q6+3ly197Ov6jev0U+b9fnKirlN3xXAFSuRYoKKiIihi8prysuuyoUSOBSorK4EYIN4PCwAxfhgrcgKJl54CMUCMfxYAYvyzl5cPX4RsAmKAGP8soBxiNGtjuOeCMAyzYO11/7oR6Od7ZxzDxGnn51gqOYqiiMGgXF+7gInbKdlF+85koCRwfOeJmCN3j6RfTvcaCTRrYzAxdfRy4H2b7XBAzGyW8WX9fBCTWZMZ+5+xzzzzjNcToikhyzvjmLi1ny7gxykUe/gXHkpQhZ3aOH5t8k7+EEJNLlYJ7SwgY1/MWk0duzsXzMS7CKMkPlbo2fVqEIUeTnJiCC5+EKONY5A7s7ORR5kFn2qQZZFHSRDaGccvowoMDwpOSq6vXcDvnp2tjWO3Uu3UZVMxBhPjvgu/o0LdJiNq0hJD4+IDMTiACEkM9mgd8T3vQs2nC1iSqAp12fxKEnK49kSxxCMx7ruwIYeHVbKMSkbHB3xoCYkR4eIDMSSEkE82BYTrh34OYsjwxDubamc2YsS7oHPQoAER0mTiDrQgITHpl9OfoV5/eekvXrkmuQt9fpSnZx+VcCTAQ5VLTa41qh2PxHjYBZ+GK6leu4B3UXVMkpAYP407FzHcwIQHLpyNIhTY1BhtwCvZIQzXdB+8UHLDMGyqRJFEDUxoF+GthNf5fppIEUQqh5jAzEG5XNWfbOWwBcQERmrk7gXERK7vA4tb4U4M+Hu+LQDEzLfFA/tkK2cvIAaI8c8CQIx/9lLOZ12uMwFigBj/LBAsMQ54RZgFgJgIc3jQ3VUiMfX19bt27Vq0aNHq1avNZnPQfYQGQmkBxRFTV1e3ePHiqKioRYsWVVVVhbKv0FYoLKA4YlJTUzlcbt26RTpoNBrJstcFXRqegGQYJk3nqa4hM9bzBk+VYZ2bBZRFjN1uj46OjoqKSkpKGhwc5M62vLw8ISHB7czdVhgyY2ejhK6rS4vNNNArYNkvCyiUmKioqISEhMHBwZKSkgULFsTExMzVK0NmrEcShKiDNpN3XF0WMhSV+F3JZrxCXMGBeMtMQztkpglBTEctz3Wi4b5dWcTYbLaEhIQo/EpMTHzuueeioqI++eSTOQztGRhEADcEkbGICjFkkdsZ0eFaWZeGycFIUHFMOCJpe45zVMdmBRFjs9mOHj362WefcZkvxiYqJiamra1tDnNjl7pUI0g42NiAxiLBuyR88BmPW2UBCXY3NgzRh8HL1I4uR1fpG6UQMzExcfTo0cOHD3d0dOzbty8xMfGFF1546aWX9u7dazD4kHbQ7sWuEuhAoxEXPgT3UlvRDtRbvg61Bu9Pr+L3MGSmRVZapAhiCC4Gg+HLL7/Mzc212+3Y7z7+RyGDz0bwHoQiNDhx2wg5LCJCIiJEETbVYekiu6NV7O7CGvYQurTYtLSIu/CSnxir1ZqdnX348GGDwZCRkXHq1Cn/ceEYEY8zKAqwF9tpmfiKmlvDk4U3ExzYyrGxJIUmiTAXn3CkoYgUQ4o3qfi/zMRYrdasrCyCS35+fqC4hMpHOJ7M3Z7vNeduK4xqyExMTk7Od999ZzAYNBrN2bNnZTMcCTf42srrmfC1+cjjtar6NspJjM1m2759e01NzYEDB86fP68+46qyR3IS43A4CgoKPvjgg4KCAlUaV5WdkpkYVdpU3Z0CYtTt39D3DogJvU3V3SIQo27/hr53SiQGNHih93PoWlQcMaDBC51zJWlJccQEp8GTxEbQKG0BZRETlAaPnUPEok3RpCTdZZd5atcN8G5uCyiUGP81eEgCI8xFo+/xZ4dGkDzMbSCoIbKAsogJXINHyRW4HlLKBDIFzUJE3nFEkRml2QETmSzC3yqImKA0eILKjncoJgYBwk0ZEjkUFWLIIq4e4Tj40H2lEENEVQFq8GgNHdttng+ChIAUIYfoZ1DyE5kT0T4QIq6iCGIILoFr8MQxgk9qBDqENEeAiNoqtgu8n80C8hMTGg0enfayF00kS+EW0OBElnA8QTkMXp7NQLBeZAGZiQmVBo/kr5zwUtBq4w0+CTdFtoG3niwgMzFK0eB5Mg2s82gBOYkBDZ5Hlyh8pZzEgAZP4XB4PD2ZifF4TrBSyRYAYpTsHSWeGxCjRK8o+ZyAGCV7R4nnBsQo0StKPiclEgOqTSDGDwuAatMPY8lRVXExJgjVJlG+CI8pC9ykXu7DpycwvVQL/NiK3lNZxASl2qQnI9F0kmQSKWHyW9GulejkFEpMAKpNkd5BeIsnIzmEcCBi56zFm/BTEdEjFqnJb/SoRCyhwfvj1jCXrk05eDkOX1tNE+TKIiYY1Sb2Mf/RwsSQ1ewKHX70EKolGlFYn/O+JQMP63JMF5ZLYEoEGZfQFI50HEHsnniVRB/6eW5WQcQEp9okPhaISdO5q+wE12KkiMFpx2LO6Er8OvpAwioaInaZag03Ro4U1gtKIYbI8AJUbdKuRQ7hHUa7F/sJffo5mFwGC7oqcTdZIC2S8Uo4iBBqhHVUa1Qb+BTC+b8iiCG4BK7adHELGkq4Dz1Ph8hDbGURY/Rbsiz4ncQm6kB0NT7GUNVw1CG1RCcRrm/lJyYkqk0ua2DzU9GlNdkSm2mgl7lwIEj2KBLYeIK04qQ+Tnu5p7iSIwhJDp/hEoE51Zq6xiSHQ2ZiQqXalOYDS/ldmgOEY6syE6No1aYwJoWjZ6U6ZzmJAdWmVF6Vsl05iQHVppSelaptmYmRqlvQrmQWAGIkM61KGwZiVOpYyboFxEhmWpU2rERiQIOnZNgURwxo8JSMi0P273zdrROEBs+9MVgTegsoK8YEpcGjZ5V5Q8G3thFDTAAaPCxwoG2ktllAum9yLSsrxgSjwaNUBWQmmcwly2VeFR5XQcQEp8EjYxKRqCChExapqNBzcnVJKcQQUVWAGjyig6MGImpRLvOq8LiKIIbgErgGD8cTKtcFdYskvMpPTEg0eCTtxeSgFdLdsSSJK8KkUZmJCZUGj4BC7h4QHpUYJp4Il9OUmRhFa/DCxYfze55yEgMavPn1dWiOJicxoMELjQ/ntxWZiZnfzsLRQmABICYERoyoJoCYiHJ3CDoLxITAiBHVBBATUe4OQWeVSAyoNkPgWMmaUBwxoNqUzNehaVhxxASh2hRkMSByCA0dnlpRFjHBqDZhqtqTf0O/TqHE+K/aRM96cXnmFHoKDI41WAPBruFCEdrEByXRbqE3sqpaVBYxwag2Wf/TzqeCDs8OmuGOjUV1XJeEHwlUlW+l6YyCiAlStYnsgwKNOK5wq1mUPAk6BZ2ENAZWXatKIYbI8AJVbWLPkMjiMiaxGOGxiQsxfGARquEW4L9XCyiCGIJL4KpN0klMDIkdbLKCRyKCCc55BIpIC7Dg1QLyExMK1ebsjzhkGCTGY0MMZokNMTjhgRDjFQ8PG2UmJlSqTQ89g1XSWEBmYkC1KY1bJWxVTmJAtSmhYyVrWk5iQLUpmVslbFhmYiTsGTQtjQWAGGnsqt5WgRj1+laangEx0thVva0qkRjQ4CmZN8URAxo8JeMCT05UuHeUeHrKijFBaPDoqSX0O1tY9KBEo4f1OSmUGP81eJwXyIx1WDtF0SevLGKC0uAhO1NT0cJUNferoOwUNv3L1eQn/CAi+YOogogJjQYPyxhYYSYnh+E0MEQnQ7YQvCAy+YGMUoghoqpgNHiunsdBhgOD3sauoRMfgpkflovUqooghuASpAYPM8I5kwsthsw0NtJQ27hFUN8Fxrz8xIRCg0cjIthBlxablsbeOkDL7rA8HMUYiC2CtXxdkpmYkGrwSF7Cdx4xwV9kexyCyEq4EvcVF/m/wZNSg4eDCbIGNSb5YRyo6sECcsYYyTR4fPAQxhzIWTy4PsBVchIDGrwAnSbrbjITI2vf4eCBWACICcRqkbxPCIiZhFckWaC8vHzZsmVoshe/nNSLoZbFizU1NampqZH8aYvMvl+9ejVAYoxGY3JycmRaLZJ7ferUqeeffx7HF/SfjiUub+gN3HJiYmJfX18kmy8C+7579+4nn3wyQGIOHTp06dKlCLRaxHa5r69v1apVjzzySIDEWCyW5ORkCDORA1B6evrTTz9N4xIVFUUPPnOMSk6ns7q6evfu3ZFjskjuqU6ni4mJoXFhGGbVqlX+EeN0OjMyMrRabSSbMhL6fu/evfj4+Mcee0xEDI2L0+mcO8Y4nU673Z6Tk7N169a2trZIsF2k9XFsbCwrK+u11157/PHHRbiIhiRfieEoa2ho2Lhxo0ajKSsrM5vNkWZW9fV3bGzs999/12q1CQkJostpwo0owPhHDBdsiouL33nnnbi4uJXwCnMLvP766ytXrnz22WfdQwtHjDsufhNDN0EwhAVVWoD2Nb3sUx5D70AvR0dHq9JYEd6p6Oho2sui5aCI4dpKSkp6FV6qsIAIDo9vQ0CMx3ZhpVotAMSo1bNS9QuIkcqyam0XiFGrZ6XqFxAjlWXV2u7/A2FV8UpDeOK6AAAAAElFTkSuQmCC;" vertex="1" parent="1">
          <mxGeometry x="-810" y="270" width="187" height="217" as="geometry" />
        </mxCell>
        <mxCell id="pZx_xOZxBOp0TPrqWiV3-9" value="" style="shape=image;verticalLabelPosition=bottom;labelBackgroundColor=default;verticalAlign=top;aspect=fixed;imageAspect=0;image=data:image/png,iVBORw0KGgoAAAANSUhEUgAAANMAAAEdCAIAAAAZ8MX+AAAgAElEQVR4Ae2de2xU15nAr6qoirTdtiuttslqpbh/tIoUBE03qdJQySgrlDTlsbuiuzRVsoTUQGJvVjgp3URAwXFiHFpaICR2TAzhYbCNMQ87NhgIEB7GEB5+Bhg/5mGPjR8Yjz3jGb92zzn3PO6d1x3P417f+UZHnnPPPfece77v5+/cxzfnk6bgAxLQQwKSHp1CnyCBKSAPINBHAkCePnKHXoE8YEAfCQB5+sgdegXygAF9JADk6SN36BXIAwb0kcA0yXM6nTfhAxLAEmhqapoGvJGRZ7Vac3NzFy1a9NJLL62GD0gASyA9Pf25557LzMw8c+aMdgQjIK+oqCgtLe3UyeM9jqaBzuvdllM9llM9rad6Wk/jdKan9UxP65dyavuyp+1sT9vZe23n7rWfu9d+Xk4d53s7vqLpQm/Hhd6Oi30dF/usLF3qs13qs13GqbbPLqd++xWc6vrtdf32q/2OqwNyujbQeW2g8+v7nddR6iLpxv2uG/e7buJ0675TToPO+sHu+sHuBpwaB3saH8ip6UFP04Oe5gc9zUM9LUP3WPpmqPebod7bON0Z6pOTq+8uThZXn8XV1+rq52l4oA2n9uGB9uH77cP3O1gauW/FyTYyaBsZtMvpgX3kgQOnzpGhTvdQl5Cc7iGnZ6jb4+r2uHrkNNwzOnwPp97Rkd7RkT4h9Y+O9I+ODIy6B7zu+3Ly3Pd6Br2eQZ/ngW/0gW90iKSx0aGxURdK3mGaRsZ8LLnHxtzjYx6cRsfH5DQx5p0Y906M+3Aam5gYm5wYmxgfGxvztbQ0Z2Vl/eEPf+jv79fCnybynE5nRkZGfn7+Pft1W/1B66391ltF1ltFtlsHbPUHbPUHcSq2NRTbG0pwKrU3ltobD9kbDzkayxxNZY6mwziVO5rLO5uPyKnlaCdKx7pajnV9c6zrm+M4VXTdrnDersTpC+edL5x3qpx3qrrvVHffre6+ewKnk92Wkz2WGpxk+u+1nkGp7Uuczt5rP9vbfg6n870U976OC33WC5RyhHi/7TJOtf32WgL3gL1uwFEnYn0fYY3JRlgjpge7bg46bw46b+FEaJaBVqB8r+nBvWacWh70tmCIMcd9twnECN/+u65+C06troFWDi6lFsE6aMWwYl4f2N0PHDh1uimpniGnx+XEgGJGA9HpHen3uvu9CMoBr+e+D6VBlBCOKCEWvUNjXhdOw2O+4XHfCE7ucUrhxNjoxPgohg/zN+GbxPBNToxPTo5PTk5cvXp12bJldXV1YeHTRF5GRsb1a5ecd6qsN/dZb+4H8oA82fL5kTc5OTHscqWnp9+9ezc0fOHJKyoqKvg0v/Ob4xg7IA9sXiibNzk5MTU52dHRsXDhQq/XGwK+MORZrda0tLR7tmsdN/cCefgiMtnJ83k9brd7HE27volANm9qcnJycuLzzz+fNWvWCy+8EAy+MOStW7fu0lenrLeKgDx6+5LU5I15R3t6epqbm0dGRsbGvMHIm5qa9Pl8S5Yseeihh77//e8HhC8UeV6vd9GiRb2O+o4be4E8IG901D0wMLB9+/Zly5ZVVlaOjnrGx72qOwwy205hu5eTk/Poo49KkpSSkuIPXyjy7t69m5aW1mu9BOTBve3oqNvtdm/ZsmXZsmVr165dtGjRkSNHPB7P+Bi5vZXvbRl5U1NTxcXFs2bNkvBn1apVKvhCkVdXV7dmzZrOluOByNuW+yxqcuVn5KnK+pW4g5WF5KnKBrQ59/Va/6cqp9LnSZK0PLtTzrwPT1WM/1TF50XWbsuWLUuWLKmqquru7v7kk0+WLl1aVVXlcrkmxn3sqYpI3umTR59++mlCniSpSVNvi2BWV1fn5OTYG8sCkVd0ccNsSZJSN2xHD/OqV6TiHlI3foye5xUuQruyPgnwPE8zeVff/6kk/fOfz8LzPJ2f53lH3T09PWSSraqq2rNnzxtvvHHp0qXCwsLf/e53VVVV6IZjfIw8zxPJO3tKQZ7K7E2fPOtnCxBsy9bZ6g9e2jBHkuakzpWkuatqG0pqN85B5rAw0JNkreTt+vMvJCBv+H6H7k+S3W53c3Pzu+++e+HChcLCwuXLl69evXrp0qUVFRW7du3Kyspyu93e0dGw5D3++OOiXYuCvFtr0ZT67IpL9QeLl0nSsys/XCZJ0sKShpISlFlUgt5hbFzFrK305OaackdA8k5noCkYf+ZlF3bdLsTY0ZL3d8M7DB3fYYx5R0ZGRlwuV35+/oIFC44dO+ZyuXJycn7961+fP3/e5XK53e6As63K5qlucqMhb9uH6FJvQXE9vshbtv4SMnVzNp/4eDMxfuLbs5o30HT8anYA8jB287J3dn1z/NBySZJ++uczFc7bYPPkd76627wxfJG3e/fu3/zmN2VlZR6P24Oe6KG7jbS0tMuXL7vd7gkNs63qUi8a8orwJCut3IAu8lZ+Vmw7sTJVklI3rlpJL/LwdV4WN3tz02v9bN6V7J/Kxo1+vb4HyOPeBrqTR2bbt99+u6KiAt/MoncYPvxgb+vWrRs2bNA428aSPBu51EPEzPmwutjWgI3f3DkIxELkMVCb9STa+WqWownzF5y81/eoPAbA5hnI5g0ODtpsNpfLhV9dyG/Pxnze3t5em82mg82z3VpHHqbgqz3kq4Kv8BCIm08i8kpelSR0eVfmILNtIPI6P/83ROcvMuqwr8qh7DfrsK9K2Wtwh4E8rHS3eeM+t8874vG4x8Y8Kl8Vn2/U4/Hgh8kBnueprvNiavNubceXepK0bL2tHpFH7mrRHS7xkjr5OnnaIs19EmUCktdyrIvAR2bbX8jkOc+8SW475sEdxszxkgrxVCW25IF/3i3qbQr+ecg/D8gDz1C133JiPEOBPCAPyANveOQQnyze8GDzwOaBzQObBzaPPLVQuqtE9Q4DfnsGvz0L5hk6NTUV1+d58FQFnqqgn9xq8RiI7fM8+iQZuUutR+9tl22A39vin9zin44n3+9tE3OHgbykqE/yQfQOA8jrbkjyX3ongjzkk/xf6xRrDMjkYVd4dFGJXPQc7AXaq1mOmnT5ZdrybLTMAKwxYLo1BhJEHnaFF1a3UNq82qwnVxYid5VVu+TVLVB+N6xucXvIvKtb6Ese9gzFN9KpWZ84Gj9BjqLSv5agpVU+xfl/KyVLq4DNA5snOsizfOhfAFmr07BDqNrm1W6cg53zSmuznsTkkRV9slbNfaO2iazok71qbvoVmG377phvRZ9E2Dy0lhT9yRkycOzetnAheXCYOheRJzuHIi/lPJaf914BXOcNAXnMyKkyYWwerGIGq5gFWVdlamoSniSf622H9fPQ6o7gJQX3tnBviyZXeG8La4bGcs3QRN1hwGq16FIPVqvV4b0teAwAefp4DAB5QB6QB2vDo+AFOq8ND9d54A0P3vDgDQ/e8OSlFnjDQySW+EVigdkWZluYbWG2hdkWZluIexbvuGcw28JsC7MtzLYw28JsC7MtzLY4xC38DgN+h6HyRiab4JM84EABwyGysvbIynCHAXcYM/8Ow9ra0GG55ZfqOyz1Vku9tVWVGqytAVOjtRWntkarOjXZ2oKlZlt7wNRia1cne/s3KHX4p9v2joDpjt0aIDmsd4Mki8MWMLU6bEGSvdVhb2Op094mpPZOu19ytHc6OoIka6dDTl0Oq5w6rV2dtiDJ3tXpl7rsXV0OkpxdDr/U6ewSkrPTKacupzNgcjqdzm6Wup3dcuomn9OnTohxzyJeV6Wn7WzX7WpIIIFIJXDhwoWoyMMR9/Z03IAEEohMApcvXwbyIhMZ/JvFRAJAHmCnjwSAPH3kHhOzMaMbAfKAPH0kAOTpI/cZba5icvLGIe8vuSgervxZUbCn48Y7KyQJZ/zheGeF9OJB9Q31X3KfnZ1b6V8ZSowoAUORp50bIM+IMEVkCxNEnuXqrpqy3JBnFpHFAvKAvMaykDwhAbVe2/3b/3jhscceC1nTnzwBr8rX5CWU5UlW2FXwojxDv/IanW35xB1ksp7xagspyZkxurjbPIadBvLoVZ5Epl2KV+Vrqc++dpFc1RW8KL3yDr4ExNd5iEg6RyMEcV6uMzMUYAKGpjeE+JInYqeBPMqQfOtAyWNWjZCJKBR2IRAJZNRqYgOZuv4vtBwQNKIE4kieCruoyON4ESHK5F1cPxubQCV5GES0K+itsRE1kWz/J3Ekr6Ys9zHh87OnZocULrVYsgEjT1X8plSVOUTmjT5eYbMtawGmXSYK42XiSF5IzvytTnDybuzpECZcPI3S2fbGHmLb0DzM7jB4ZQql8eQeoXD8xTXjS4xD3owXJcAUkQSAPCBeHwkAefrIPSLzYMrKQB6Qp48EgDx95G5KMxbRoIA8IE8fCQB5+sg9IvNgyspAHpCnjwSiJc8HH5DAtCQA5E1LbHBQ1BIwInmdXV2r/nr47zPPHjpWFfUAoQGDSsBY5LlcruyCQ99768t/2Xjsg4LDf/M/AJ9BuYn+tAxE3sEjX/zT/55+Yu2JovLK5uaW5uaWzw4e+9u3vioByxe9no3XgiHIO/fVxZ+tr/yHt87kfFZGmGN/DQ5fTaaUWWM8rc6EM9KZvPr6hl+9f/R7b325Zkfprfp6BhzLfH39xr/nHHlkjUHVC+RNG3KdyfvHNafmZVXUXrnKUGOZhsamvP1HfvTuybc/OrRk05FwI7Tkzac/42BWiJfRolAl1HpZ8ubPz7OQ/ngeM1aTSfogzdEtSUL1/ZsOd8rJvV9n8n71/tEfvlNzuOIEA45kDh2vTt1Q8Z8fHr54uba7u/vlzeWa1cRgqcnERAgH+pUgWhhldC9rwOdDOMn7MWaMOHoQt3k8J3QI2eAS0Jm8lzeXnz57XoTv1Nnzv91c/sy6L8qOV8urS2okj5sgbL38UQhXImPGaVORRw2njzfEc9jkUSCDyxv2UAnoT153d/epL8/98J2a3aXH/ntr6Y/ePfn5oeOdnZ0Mu7a2tvA2jxosn0/mApHAUMGj9S8REEI1oiKPdSGpuqWShm+lBPQn7/+fGzP4/rSrrL29nTHncDjKjlen//VQydEwj5QFqpDpQ8ihIqUNClPC4GUZsQ1u3SjbSJBiqSzYAEVKkcMWloDO5H2878jWPeUEvpc3lzPmuru7a86cy9xe+tHecqvVpkFZbK7NzGRPOlgZM0OhSlglDBy+lZifmSlc5zETKsBFGpyfZ/FvWcNJJ3MVnclzu90f7S3fsvtwZ2cnI6/u6rXsgkMbC8rq6xuSWTfmHrvO5Pl8PgLf1j3lL28ub2xq2rqnPHN76VcXL3m9XnOLPslHpz95DL6XN5enbz1UUX1qeHg4ybWSDMM3BHkEvrPnL/T19SWD0GGMPp/PKOSBMpJNAtGSB1djyUZMrMZ7+vTpqCKxDDgb+juvQwIJRCqBaMmD6FOm/GFYAgYV7WwL5CVASabsAsjT5zd/poQpokEBeUCePhIA8vSRe0TmwZSVgTwgTx8JGIc8HsRCDi6QiCVmQwS40kcfpjRvAQdlKPJoVAJx3e048HfwlWDh1IC2xEkgQeRFGH3Kf7XuWEoEyAtohBJcmAjyWGCMkGMTaWN5tAZ8Lopsgc0hDrFCfv1Fw0rhReLZYvAsbAavSZaH5+2ksoiSYkSXG3s61Ifw2Z/2FUv6Q4oiKTqKO3kMuwgisRS8KMnhptB1mBzNB5FBp2MUA4jkUQUajIVetAWOVkXbubFHsHk0uoH/IRBLIw7XOeL/W3zJE7HTQB79wSwLrsKiTJGQGMyk4TAYqsAYHayQmUDSnsq2BSTP/xBsAiGElchKbPNxJE+FnQbymElj0w21SZGSJzCK5SW0E4w89SHoHCCEVWxpE1uLI3lRR58SAlDJ12EMTcVsSy0TLVTMywTicOQFOITSD9NufKbdOJInAq4hz+4qqMrRgBXEiDGo6FU/qoBvQdDMSgtDRatCZ0LmVtUsLEy4CGW+CSGsRI3ELG8c8qY3JCWa8fnv1PBvM72TT+qjgLykVr+O/1RAHpCnjwRmOnn6SE1HU2GaroE8YFcfCQB5+sjdNKZr2gMB8oA8fSQA5Okj92mbCtMcGC15Q/ftrvsOSCCBSCUQLXmx+sU5tJNsEjAieY2NjW+//fbs2bMXLFhgt9uTTSVJMl7DkdfQ0DBnzpyUlJTZs2fX1tYmiRqScJiGI2/16tUEu4sXLzJ9WK1WloeMOSRgLPK8Xu/jjz+ekpKydOnS/v5+IuLz588vXrxYm7j9F+HWdlxca6GTkj9sqeW4djgjGjcoeSkpKYsXL+7v7z9z5swTTzwxd+5cTdK05M0XFujWdEgsKgkrdqubw9Rx3mryaHQhdcUItkN0F0Erelc1Fnkej2fx4sUp9LNkyZIf//jHKSkpf/zjH7UICoFXEyhSgJaDo6gTHIXge+LSXRSNJvxQA5Hn8Xh27tz53nvvkTsMil/K3LlzW1tbNUiGgOcXpIJPdtT2hCqhsQlCRAKiAQhIc3QrUPSzYODxE4iyOw1SMWoVo5A3Ojq6c+fObdu2tbe3b9iwYcmSJT/5yU+eeuqptWvXWixy+LswMuRq5jmMoTIeC7KJyhLEASuhe4OSR2P80IqKeCxizyyokOq8Y9idquUZtWkI8hh2Fotl8+bN+/btm8YiuKLSeZ7nqFrClUQVgwobM0Zx4IlfeQJRdUfHNBO/9SfP7XZ/+umn27Zts1gsubm5e/funQZ22LbRG0jyjedCRAKdY4l6/EtUfESPAsYPdxugM/XFQPTdzUTs9F8b3u125+fnM+yKi4unhZ1anXySRbrnNggpKUwJm0RZRjxCtFc8z3OMAlqErgJ5/5a8zDyL4gRYLywzre5YvzMno7PNKygo2LFjh8ViycnJKSkpmbbcqKJ5A1yT/BaAWr9QJdxEIkLwJ8roZ6wdziA/gei648OdeTk9yfN4PG+++ebNmzc/+OCDQ4cOzTzhwRlHIQE9yfP5fEePHv39739/9OjRKIYAh85ICehM3oyUGZx0LCQA5MVCitBG5BIA8iKXGRwRCwkAebGQIrQRuQROnjwZVdwziAFkmp/kJHgg0do8IC/BCjNNd0Ae/OpRHwkAefrI3TSma9oDAfKAPH0kAOTpI/dpmwrTHGgc8nD8Cb9lsg++ItEIBaERmd7ioQGXyA3dEeyNjQQMRh6PeIGHh8JUzE6VY2MEGHCAyBaRLVgL5AWQamLMaoLI0xh9asUrs+lC70giF9fPXrH+NSAvMSgkuJdEkMcCY4QcGzE/76zgFg5PoDwekDpAFJqIyYet8k4XdOeLxOOAKqQWL6TVpFdey32WRDqAWFOJNn5xJ49hpzESC59AC16UowMQFv0DRKljqtAwVAxWRZSLQNEyEIKYPAh6EdlVSgwwjS95InYayUOR79B9Br0CYxgxQ8XtXKAIZmIUDSVPF9fjqVxRSHvBplGc6EOa5xjIHdqPI3kq7LSSR5grIPzhqCnE5imIkXXPDaQiZgu9z1UeQshDAaX4HTQlD//HQ6ypRP4/xJG8aUefUhDAbJ5i6tRGnuIQcbalYX3YbMvmGiWsidREsvUVR/IiFKVofoT7DEYeixqFZ1t5ZiRTMLvDkAGiNk95CLvDIGSjZtgdBp/KKZSMRcjERwLGIQ8unpJLAkBecuk7wokojsIB8uIoXOOo2YBnAuQBefpIAMjTR+4GNEIJPiUgD8jTRwJAnj5yT7CBMWB3QB6Qp48EoiWv3/F1n60OEkggUglES17kv/CFI0ACSAKGI+/KlborV+pAOaaXgIHIa2pq+mjT/pyMopyMoo827W9qajK99JN5gIYgz2azFe44mL2yeO/O0vr6+oaGxgN7ynLeKM77U1FbW1syq8fEY9efvNKDR7LTSgo/Kb7+9fXm5haWrn99fdcnxdlpJaUHjmhWgGINYr+j5NWwleWqwtAtKA+FrSgkoD95H28qyl5emv+nA+fOnmfYNTe3nDt7Pv9PB7KXl+7YtF/rAMNEn1JBRlpVFoZpQeuJRFrPf53nSFuYcfX1J2/7xqLbt+/s/aw0e1XJR9n7T1TVnKiq+ej9ouxVJXs/K719+872jUUaxRou+pQSMrlRRWG4FjSeSMTVgDxJkqaEj2JDKEfZ6urqnJyciGXsd8D2jUXd+GO3248ervhw9YFNGQeL9x22Wm2kXDN5BBu/CAVsIfbMvLz5NEJAwEIUEACvH68Cga/uTleXD1VCl3sXkeZ53DTtnTRHt/ja8X5CMmGBIWweIYz8PXq44ujhCrFEK3kcF54Tg0ugiCskNoV4LccKg0aR4vENqP79SsQGWXQrTpsYhwpjxogT/hEo1LQTs3+bhzwBNyGqj1iKMMSqDliotJW8Cs9RFsKVyN3Q3tBhPC8ezPM8Rzsx/bdpyONTFvlVJJnzkDHixoQj4V+IwZMPDd6CTJFwOCZECQ7vhpo0IM//H8kQ5LVaWtn0qpptWy2tmmZbpe6V0acoemxiFXlkhaFaYARhASrmVv8SNhezjDjni93wPM/5q8ikJfqTd6SsYkfOgeL95U1NTd3d3Yy85qbm4v3lH28qOlJWEVb4/ppjakeckI9wh+FfGKIFfIEoN1FDToVbWBFr2o9cCQOHyyKIXxV2qGapoD95Pp+vt7e38nj1jk379hWW7t+F0r7C0h2b9lUer+7t7TWLqGEcCgkYgjxyRiMjI1+dv1Dw1wP5W4pO15xxuVyKM4UNc0nAQOSZS7AwmjASAPLCCAh2x0kCQF6cBAvNhpEAkBdGQLA7ThIA8uIkWGg2jAQMRx54w4fRmFl2G4g88IY3C1SaxmEI8sAbXpOuzFVJf/LAG14gir/Vk9/EEbcuoYZpsvqTB97wCs9AQpb/W+SQxEVYPWRbidqpP3ngDQ/kEQMvOr2DNzy2AHwOpJ4poUqo8x73BvXzDKWuLqQ5uiV4w6uMmLo7xXaAwxNlt6LpxxA2jznniV5SrFCTf57Cbgh6Qzqi3nVIRTgfsDBYC8y7nYuZeWDRIrFBVj8oeZLMptCMcMa4TXFbbIeUi3v9qtNzMvq3ecgT1cHzPCf4pAcsNJQ3vHiG3KYRX788CzZ59P8JESZWNzpx9PxMQ55KP7JdQTqiMySb8wIWGssbXkRJzFO1kX8jSbCefJRCHSNnDUEeeMOr6RK3FVO5kiVajX4r9xp7S3/ywBseEUJMNptBVSgJBh1V4ZvU0qkONzZz5Oz0Jw+84WcCJ7E/R0OQR4YF3vCxV6+BWzQQeQaWEpxa7CUA5MVeptCiFgkAeVqkBHViLwEgL/YyhRa1SMBw5IFPsha1maCOgcgDn2QT8KR9CIYgD3yStSvMNDX1Jy9GPsn4LTp15KWP9qehJtEzhB2uaJy+t2d7I8nILUVxgpH0ZuS6+pMXI5/kgMRMQ/Ih21G91Iq8ecExKvKDzXWE/uTFyCc5JDER6CxkO7EgD8wd0YYhyCNOoNGt0O1HjFjA85gd+sadQ0BLJL7GHp9hFdWUG3locb75ssccmevlCgE6Yp3IjlvqHtAhtMEI/ldmaFUDkUf4Yys3RuiTzNXIHY+Z64eCPMGpjVRAh9KqiA6cD2jeFIWsqqh61hPGjFAoTLG8AVaRO3YGbFBs3FR5M5FH6SEKElXL81z13JNXLGMrGmOSlS3yI3APisMEzyVi0cS9PK/I0fsh9I164jtNhViQwQB5eE1ZPodySFV+v0iACjaEjQBWTdgrHMZLeY5pJkAR22e+jCHIi4FPMrNVXEUcB2E6FbVL82g3Rc9/xqO1UMNiXtgQGkDH47bEqjzPc8I50VPmO2mJmb/1Jy8mPsnsNxairpBy8SfsAtmsJr/DwNdp+GgKZXDyMJKkq8zMTG3kkdbIQaEuLcUBmSqvP3ngk2wqoDQPxhDkkbMFn2TNWjNDRQORZwZxwhg0SwDI0ywqqBhTCQB5MRUnNKZZAkCeZlFBxZhKAMiLqTihMc0SMBx54A2vWXczu6KByANv+JmNUoRnbwjywBs+Qq2Zobr+5MXBG17tYoIVxd6oalRbgBerGo+MTzWFK8O0RhSf85puq/qTF3tveMSM8LJVm2jUr+stefPZO1htLcSklvo0eKP+5PF9qlzwRlQV9dzUn7w4eMNHoCQme5W2EHg1gjsKqxfnjOo0hN4iGFTwRoT29M4agrxYe8MzJSEVUP9ypg6coa4oxDbSLdlpBHu++Pk6MX895GBCbarg5SLHkOcltBI7HWHBXNnjinYc6DR4Q3iv2Aqhho1IUZM2ycaiN2JB+jcQeVF7w9PLO+6Yh7QglAr6ZVm/3UhQTKdCDpfS2rI0eU9yAWKA1aF7RWZ4HhMS4jT4OZC2+ZFyX+zc1DXZDlrRkN9mIo86u1FbIxIk5EVF8TzPCVWDQkh0KR4TqESGRWSG58WDeZ7nsCFjFAdyQKR11TWBPG3/ats3FrEf+0QRlYCrVOiW6gYVsTzLiIV8N67JIMYZOttxpHEfSOPEaLEuxbYZLOKp8bxYled5jnUhT+38SNqboi7GTz4dxQ5a22jfhrB58fGGV4AVAXlqvQmTJp9JGReCVZIvBFkJPRBRLRciPuSs2A3P8xwjRS4KQx6qTg+m36wJI2b0Jy9+3vBcFaJamH4UhdTSzc/Lk93ZubY4OPzqndq6UCXcIBKDhH5ilpk5PyR56OzIT9HULbM25P18dOqafCwWPgjD5fQnD7zhDQdFQk7IEOSRkYI3fEI0bpRODESeUUQC55EQCQB5CREzdOInASDPTyRQkBAJAHkJETN04icBw5EHPsl+OjJngYHIA59kcyIWZFSGIA98koNox8zF+pMXB59k/vIgsaoT3o0ltuOZ2Jv+5BnEJzkGyjOcG3MMxhS/JvQnzyA+ydGL2HhuzNGPKY4tGIK8GPski14d/D07c8LMrJFfsWfW4PVC2Rt4JGZen0zZaJt6BwirQ/Jq4k6cVzmK+NcMVUL7Ug1BdDKg/gFsPNiRi6yfaoYAAAM+SURBVHvAxhGWmDZtIPKi9kmWVUDdkJh/HBaYDATWG1YaBoCoFGVRGfqWlYz9PXCek0RxoN+oXbaXZXgR2c0aJHrjji+yHgN2KnbB8/zkUSe0Yd6z3OLM+DITeUQVSp1QGqlhE9TknxVKhJ9M0FIymxKc1M2qcSMGSVHKwJP3UT5o82RbxozTJv7/iFV5nudokzPi23zkBbRDTBeCmvyzQolAnswP38lzYrMijNyNmE6fck1qXdmBwtniMiBvCn8k8hXwb3V1dU5OjiDCaWa3byyKtU8y1a9iIiOnJ1Djn1XUF2wnuWmls5tyUsbNCk3RbVxb0SDeE6aEdcoyYm9iNzzPc2SIM+Sv/jYvLj7J6IoIz2r0elwOOSHOf4LGeFaoL8yKfrwI1ebnWfjhVOscHF6TtheqhJtI1CX+RODGTHufEd/6kwc+yTMClJifpCHII6MCn+SYa9fIDRqIPCOLCc4t5hIA8mIuUmhQkwSAPE1igkoxl8D0yaurq1uzZk3MTwgaTBIJVFZWPv300+JTUPHhXajneXfv3k1LS0sSMcEwYy6B4uLiWbNmTYc8r9e7aNGi4eHhmJ8TNJgMEsjJyXn00UenQ97U1NS6devOnTuXDGKCMcZWAsPDw7/85S8feuihaZJntVrT0tLA7MVWK8nQWmFhoWqqfeSRR7Re55F6RUVF+fn5ySAsGGOsJNDS0vL8889/61vfEg3eM888Exl5U1NTGRkZ165di9VpQTvmlsDAwEB6evp3vvMdETtJUt/LqrdFKlne6XRmZGTk5+fDtGtuaKIf3aVLlxYuXKi6sZAk6eGHH2Y4kYwm8kjVoqKitLS0ysrKgYGB6E8RWjCZBK5du5aVlZWamvrtb39bZe38Dd7U1FQE5E1NTVmt1tzc3Oeff/6ll15aDR+QAJZAenr6c/jzgx/8wJ85SZLmzZunMngRk8eO//nPf/538AEJYAl897vfDQgcKVTdWDCEIrN57DCSefjhh0N0CbuSXAL+13YiP1GRRxp65JFHklzEMHyVBFJSUkTIAuZjQF7AdqEQJBBaAkBeaPnA3nhJAMiLl2Sh3dASAPJCywf2xksCQF68JAvthpbA/wG0TJSE+ka9AgAAAABJRU5ErkJggg==;" vertex="1" parent="1">
          <mxGeometry x="-349" y="736" width="211" height="285" as="geometry" />
        </mxCell>
        <mxCell id="pZx_xOZxBOp0TPrqWiV3-13" value="" style="endArrow=open;html=1;endSize=12;startArrow=diamondThin;startSize=14;startFill=0;edgeStyle=orthogonalEdgeStyle;rounded=0;exitX=0;exitY=0.5;exitDx=0;exitDy=0;entryX=1;entryY=0.5;entryDx=0;entryDy=0;" edge="1" parent="1" source="pZx_xOZxBOp0TPrqWiV3-6" target="pZx_xOZxBOp0TPrqWiV3-5">
          <mxGeometry relative="1" as="geometry">
            <mxPoint x="-191" y="363" as="sourcePoint" />
            <mxPoint x="-241" y="583" as="targetPoint" />
          </mxGeometry>
        </mxCell>
        <mxCell id="pZx_xOZxBOp0TPrqWiV3-16" value="" style="endArrow=open;html=1;endSize=12;startArrow=diamondThin;startSize=14;startFill=0;edgeStyle=orthogonalEdgeStyle;rounded=0;exitX=0;exitY=0.5;exitDx=0;exitDy=0;entryX=0.987;entryY=0.393;entryDx=0;entryDy=0;entryPerimeter=0;" edge="1" parent="1" source="pZx_xOZxBOp0TPrqWiV3-9" target="pZx_xOZxBOp0TPrqWiV3-7">
          <mxGeometry relative="1" as="geometry">
            <mxPoint x="-462" y="854" as="sourcePoint" />
            <mxPoint x="-559" y="854" as="targetPoint" />
          </mxGeometry>
        </mxCell>
        <mxCell id="pZx_xOZxBOp0TPrqWiV3-20" value="" style="endArrow=block;dashed=1;endFill=0;endSize=12;html=1;rounded=0;exitX=1;exitY=0.25;exitDx=0;exitDy=0;entryX=0;entryY=0.75;entryDx=0;entryDy=0;" edge="1" parent="1" source="pZx_xOZxBOp0TPrqWiV3-4" target="pZx_xOZxBOp0TPrqWiV3-8">
          <mxGeometry width="160" relative="1" as="geometry">
            <mxPoint x="-752" y="529" as="sourcePoint" />
            <mxPoint x="-893" y="416" as="targetPoint" />
            <Array as="points">
              <mxPoint x="-850" y="479" />
              <mxPoint x="-850" y="433" />
            </Array>
          </mxGeometry>
        </mxCell>
        <mxCell id="pZx_xOZxBOp0TPrqWiV3-21" value="" style="endArrow=block;dashed=1;endFill=0;endSize=12;html=1;rounded=0;entryX=0;entryY=0.25;entryDx=0;entryDy=0;" edge="1" parent="1" target="pZx_xOZxBOp0TPrqWiV3-8">
          <mxGeometry width="160" relative="1" as="geometry">
            <mxPoint x="-950" y="281" as="sourcePoint" />
            <mxPoint x="-1061" y="167" as="targetPoint" />
            <Array as="points">
              <mxPoint x="-850" y="281" />
              <mxPoint x="-850" y="324" />
            </Array>
          </mxGeometry>
        </mxCell>
        <mxCell id="pZx_xOZxBOp0TPrqWiV3-22" value="" style="endArrow=open;endFill=1;endSize=12;html=1;rounded=0;exitX=0;exitY=0.5;exitDx=0;exitDy=0;entryX=1;entryY=0.5;entryDx=0;entryDy=0;" edge="1" parent="1" source="pZx_xOZxBOp0TPrqWiV3-5" target="pZx_xOZxBOp0TPrqWiV3-8">
          <mxGeometry width="160" relative="1" as="geometry">
            <mxPoint x="-620" y="370" as="sourcePoint" />
            <mxPoint x="-580" y="470" as="targetPoint" />
          </mxGeometry>
        </mxCell>
        <mxCell id="pZx_xOZxBOp0TPrqWiV3-23" value="" style="endArrow=open;endFill=1;endSize=12;html=1;rounded=0;exitX=0.5;exitY=1;exitDx=0;exitDy=0;entryX=0.5;entryY=0;entryDx=0;entryDy=0;" edge="1" parent="1" source="pZx_xOZxBOp0TPrqWiV3-8" target="pZx_xOZxBOp0TPrqWiV3-7">
          <mxGeometry width="160" relative="1" as="geometry">
            <mxPoint x="-700" y="590" as="sourcePoint" />
            <mxPoint x="-540" y="590" as="targetPoint" />
          </mxGeometry>
        </mxCell>
        <mxCell id="pZx_xOZxBOp0TPrqWiV3-24" value="" style="endArrow=open;endSize=12;dashed=1;html=1;rounded=0;exitX=0.5;exitY=1;exitDx=0;exitDy=0;entryX=0.75;entryY=0;entryDx=0;entryDy=0;" edge="1" parent="1" source="pZx_xOZxBOp0TPrqWiV3-5" target="pZx_xOZxBOp0TPrqWiV3-7">
          <mxGeometry width="160" relative="1" as="geometry">
            <mxPoint x="-470" y="630" as="sourcePoint" />
            <mxPoint x="-310" y="630" as="targetPoint" />
            <Array as="points">
              <mxPoint x="-377" y="520" />
              <mxPoint x="-660" y="520" />
            </Array>
          </mxGeometry>
        </mxCell>
        <mxCell id="pZx_xOZxBOp0TPrqWiV3-25" value="" style="endArrow=open;endSize=12;dashed=1;html=1;rounded=0;exitX=0.5;exitY=1;exitDx=0;exitDy=0;entryX=1;entryY=0.25;entryDx=0;entryDy=0;" edge="1" parent="1" source="pZx_xOZxBOp0TPrqWiV3-6" target="pZx_xOZxBOp0TPrqWiV3-7">
          <mxGeometry width="160" relative="1" as="geometry">
            <mxPoint x="-128" y="540" as="sourcePoint" />
            <mxPoint x="-413" y="748" as="targetPoint" />
            <Array as="points">
              <mxPoint x="-86" y="570" />
              <mxPoint x="-530" y="570" />
              <mxPoint x="-530" y="807" />
            </Array>
          </mxGeometry>
        </mxCell>
        <mxCell id="pZx_xOZxBOp0TPrqWiV3-26" value="" style="endArrow=open;endSize=12;dashed=1;html=1;rounded=0;exitX=0.75;exitY=1;exitDx=0;exitDy=0;entryX=0.5;entryY=0;entryDx=0;entryDy=0;" edge="1" parent="1" source="pZx_xOZxBOp0TPrqWiV3-6" target="pZx_xOZxBOp0TPrqWiV3-9">
          <mxGeometry width="160" relative="1" as="geometry">
            <mxPoint x="7" y="540" as="sourcePoint" />
            <mxPoint x="-278" y="748" as="targetPoint" />
            <Array as="points">
              <mxPoint x="-40" y="620" />
              <mxPoint x="-243" y="620" />
            </Array>
          </mxGeometry>
        </mxCell>
      </root>
    </mxGraphModel>
  </diagram>
</mxfile>
